<svg width="78" height="78" viewBox="0 0 78 78" fill="none" xmlns="http://www.w3.org/2000/svg">
<g opacity="0.3">
<path opacity="0.3" d="M50.5688 64.2551C50.5519 64.2552 50.5354 64.2509 50.5207 64.2425L44.3322 60.6698C44.3178 60.661 44.3058 60.6488 44.2974 60.6342C44.289 60.6196 44.2845 60.6031 44.2841 60.5862C44.2842 60.5696 44.2887 60.5533 44.2972 60.539C44.3056 60.5247 44.3177 60.5129 44.3322 60.5048L52.0626 56.0378C52.0769 56.0295 52.0931 56.0252 52.1096 56.0252C52.1261 56.0252 52.1424 56.0295 52.1567 56.0378L58.3473 59.6105C58.3617 59.6191 58.3736 59.6314 58.3817 59.6461C58.3897 59.6608 58.3937 59.6773 58.3933 59.6941C58.3936 59.7106 58.3895 59.7268 58.3814 59.7411C58.3733 59.7555 58.3615 59.7674 58.3473 59.7756L50.6168 64.2425C50.6022 64.2509 50.5856 64.2552 50.5688 64.2551ZM44.5704 60.5862L50.5688 64.0503L58.1154 59.6941L52.1128 56.23L44.5704 60.5862Z" fill="#BA68C8"/>
</g>
<path d="M50.5688 63.2669V35.5981L45.9264 32.9175V60.5863L50.5688 63.2669Z" fill="#BA68C8"/>
<path opacity="0.2" d="M50.5688 63.2669V35.5981L45.9264 32.9175V60.5863L50.5688 63.2669Z" fill="black"/>
<path d="M50.5685 63.2668L56.7571 59.6941L56.7592 32.0253L50.5685 35.5981V63.2668Z" fill="#BA68C8"/>
<path d="M56.7595 32.0253L52.117 29.3447L45.9264 32.9174L50.5688 35.598L56.7595 32.0253Z" fill="#BA68C8"/>
<path opacity="0.25" d="M56.7595 32.0253L52.117 29.3447L45.9264 32.9174L50.5688 35.598L56.7595 32.0253Z" fill="white"/>
<path opacity="0.3" d="M56.7595 32.0253L50.5062 35.4727L48.4754 34.3382L45.9264 32.9175L48.4336 34.4176L50.4874 35.6419C50.4372 36.3398 50.4247 60.4358 50.433 61.1316C50.4384 61.8454 50.4844 62.5583 50.5709 63.2668C50.6567 62.5582 50.7021 61.8453 50.7067 61.1316C50.7067 60.4567 50.7067 36.3836 50.6566 35.7088L56.7595 32.0253Z" fill="white"/>
<g opacity="0.3">
<path opacity="0.3" d="M38.9623 70.9596C38.9455 70.9595 38.929 70.9552 38.9143 70.9471L32.7257 67.3744C32.7113 67.3656 32.6994 67.3533 32.691 67.3387C32.6826 67.3241 32.678 67.3076 32.6777 67.2908C32.6778 67.2742 32.6823 67.2579 32.6907 67.2436C32.6991 67.2293 32.7112 67.2174 32.7257 67.2093L40.4562 62.7424C40.4709 62.7341 40.4874 62.7298 40.5042 62.7298C40.5211 62.7298 40.5376 62.7341 40.5523 62.7424L46.7408 66.3151C46.7557 66.3232 46.768 66.3351 46.7767 66.3496C46.7853 66.3642 46.7898 66.3807 46.7898 66.3976C46.7898 66.4145 46.7853 66.4311 46.7767 66.4456C46.768 66.4601 46.7557 66.4721 46.7408 66.4801L39.0104 70.9471C38.9957 70.9554 38.9792 70.9597 38.9623 70.9596ZM32.9639 67.2908L38.9623 70.7507L46.5089 66.3945L40.5105 62.9304L32.9639 67.2908Z" fill="#BA68C8"/>
</g>
<path d="M38.9624 69.9673V50.3131L34.3199 47.6325V67.2867L38.9624 69.9673Z" fill="#9E99E3"/>
<path opacity="0.1" d="M38.9624 69.9673V50.3131L34.3199 47.6325V67.2867L38.9624 69.9673Z" fill="white"/>
<path d="M38.9626 69.9673L45.1533 66.3925V46.7404L38.9626 50.3131V69.9673Z" fill="#9E99E3"/>
<path opacity="0.3" d="M38.9626 69.9673L45.1533 66.3925V46.7404L38.9626 50.3131V69.9673Z" fill="white"/>
<path d="M45.153 46.7403L40.5106 44.0597L34.3199 47.6324L38.9624 50.313L45.153 46.7403Z" fill="#9E99E3"/>
<path opacity="0.55" d="M45.153 46.7403L40.5106 44.0597L34.3199 47.6324L38.9624 50.313L45.153 46.7403Z" fill="white"/>
<path opacity="0.3" d="M39.0439 50.4259L45.153 46.7404L38.8997 50.1877C38.2249 49.8054 37.5479 49.4293 36.871 49.0532L34.3199 47.6325L36.8271 49.1305C37.5124 49.5484 38.1956 49.9537 38.883 50.357C38.8621 51.0799 38.8391 56.3533 38.8329 57.0762C38.8266 57.7991 38.8224 64.8067 38.8329 65.5421C38.8433 66.2775 38.8496 67.0172 38.8726 67.7547C38.8955 68.4922 38.9227 69.2297 38.9687 69.9673C39.0167 69.2297 39.046 68.4922 39.0648 67.7547C39.0836 67.0172 39.1003 66.2796 39.1045 65.5421C39.1087 64.8046 39.1045 57.8116 39.1045 57.0762C39.0878 56.3763 39.0648 51.1258 39.0439 50.4259Z" fill="white"/>
<g opacity="0.3">
<path opacity="0.3" d="M27.3584 77.6559C27.3416 77.656 27.325 77.6517 27.3103 77.6434L21.1197 74.0706C21.1056 74.0618 21.0939 74.0494 21.0859 74.0348C21.0779 74.0202 21.0737 74.0037 21.0737 73.9871C21.0734 73.9706 21.0775 73.9544 21.0856 73.94C21.0937 73.9257 21.1055 73.9138 21.1197 73.9056L28.8502 69.4386C28.8645 69.4304 28.8807 69.426 28.8972 69.426C28.9137 69.426 28.9299 69.4304 28.9442 69.4386L35.1348 73.0114C35.1493 73.0199 35.1611 73.0322 35.1692 73.0469C35.1773 73.0616 35.1813 73.0782 35.1808 73.0949C35.1811 73.1114 35.177 73.1276 35.169 73.1419C35.1609 73.1563 35.1491 73.1682 35.1348 73.1764L27.4044 77.6434C27.3905 77.6516 27.3746 77.6559 27.3584 77.6559ZM21.3579 73.9871L27.3584 77.4511L34.905 73.0949L28.9045 69.6308L21.3579 73.9871Z" fill="#9E99E3"/>
</g>
<path d="M27.3585 76.6678L27.3564 63.2669L22.714 60.5863L22.7161 73.9872L27.3585 76.6678Z" fill="#BA68C8"/>
<path opacity="0.45" d="M27.3585 76.6678L27.3564 63.2669L22.714 60.5863L22.7161 73.9872L27.3585 76.6678Z" fill="black"/>
<path d="M27.3583 76.6676L33.5468 73.0927L33.5489 59.694L27.3562 63.2667L27.3583 76.6676Z" fill="#BA68C8"/>
<path opacity="0.3" d="M27.3583 76.6676L33.5468 73.0927L33.5489 59.694L27.3562 63.2667L27.3583 76.6676Z" fill="black"/>
<path d="M33.5492 59.6941L28.9067 57.0135L22.714 60.5863L27.3564 63.2669L33.5492 59.6941Z" fill="#BA68C8"/>
<path opacity="0.15" d="M33.5492 59.6941L28.9067 57.0135L22.714 60.5863L27.3564 63.2669L33.5492 59.6941Z" fill="black"/>
<path opacity="0.3" d="M33.5492 59.694L27.2959 63.1393L25.265 62.0068L22.714 60.5861L25.2212 62.0841L27.275 63.3106C27.2269 63.7284 27.2144 74.9272 27.2227 75.3513C27.2273 75.7934 27.2734 76.2341 27.3606 76.6676C27.4461 76.2339 27.4916 75.7933 27.4964 75.3513C27.4964 74.9481 27.4964 63.7786 27.4505 63.3753L33.5492 59.694Z" fill="white"/>
<g opacity="0.3">
<path opacity="0.3" d="M62.1727 57.5547C62.1566 57.5544 62.1408 57.5501 62.1268 57.5421L55.9361 53.9694C55.9216 53.9608 55.9095 53.9486 55.9011 53.9339C55.8927 53.9193 55.8882 53.9027 55.8881 53.8858C55.8882 53.8692 55.8927 53.8529 55.9011 53.8386C55.9095 53.8243 55.9216 53.8125 55.9361 53.8043L63.6666 49.3374C63.6813 49.3292 63.6978 49.3248 63.7146 49.3248C63.7315 49.3248 63.748 49.3292 63.7627 49.3374L69.9512 52.9101C69.9661 52.9182 69.9784 52.9301 69.987 52.9447C69.9957 52.9592 70.0002 52.9758 70.0002 52.9926C70.0002 53.0095 69.9957 53.0261 69.987 53.0406C69.9784 53.0551 69.9661 53.0671 69.9512 53.0752L62.2208 57.5421C62.2061 57.5504 62.1896 57.5548 62.1727 57.5547ZM56.1743 53.8858L62.1727 57.3499L69.7193 52.9916L63.7209 49.5275L56.1743 53.8858Z" fill="#BA68C8"/>
</g>
<path d="M62.1728 56.5663V16.3073L57.5303 13.6267L57.5324 53.8857L62.1728 56.5663Z" fill="#9E99E3"/>
<path opacity="0.3" d="M62.1728 56.5663V16.3073L57.5303 13.6267L57.5324 53.8857L62.1728 56.5663Z" fill="white"/>
<path d="M62.1725 56.5665L68.3631 52.9937V12.7347L62.1725 16.3075V56.5665Z" fill="#9E99E3"/>
<path opacity="0.55" d="M62.1725 56.5665L68.3631 52.9937V12.7347L62.1725 16.3075V56.5665Z" fill="white"/>
<path d="M68.3634 12.7346L63.721 10.054L57.5303 13.6267L62.1728 16.3073L68.3634 12.7346Z" fill="#9E99E3"/>
<path opacity="0.75" d="M68.3634 12.7346L63.721 10.054L57.5303 13.6267L62.1728 16.3073L68.3634 12.7346Z" fill="white"/>
<path opacity="0.3" d="M62.2543 16.4286L68.3634 12.741L62.1101 16.1883C61.4374 15.806 60.7583 15.4299 60.0814 15.0538L57.5303 13.6331L60.0375 15.1332C60.7228 15.5511 61.406 15.9543 62.0955 16.3576C62.0725 17.1766 62.0495 17.9956 62.0433 18.8146C62.037 19.6336 62.0433 50.7372 62.0433 51.5709C62.0433 52.4045 62.06 53.2423 62.085 54.078C62.1101 54.9138 62.1331 55.7495 62.1811 56.5852C62.2271 55.7495 62.2564 54.9138 62.2752 54.078C62.294 53.2423 62.3128 52.4066 62.317 51.5709C62.3211 50.7351 62.317 19.6482 62.317 18.8146C62.2982 18.0144 62.2773 17.2184 62.2543 16.4286Z" fill="white"/>
<path d="M17.3082 37.6199C17.4148 37.3692 17.6885 37.1874 18.1022 37.1373C18.5582 37.1064 19.015 37.184 19.4352 37.3638C19.8554 37.5435 20.227 37.8204 20.5195 38.1715C20.7702 38.5037 20.8308 38.8276 20.7284 39.0783L13.8442 57.0714C13.7125 57.4517 13.3239 57.7254 12.7159 57.8006C11.5584 57.9406 10.0521 57.2992 9.35213 56.3673C8.98441 55.8785 8.91546 55.4063 9.09515 55.049L17.3082 37.6199Z" fill="#455A64"/>
<path d="M20.5194 38.1715C21.0208 38.838 20.7554 39.4606 19.9281 39.5609C19.4745 39.5908 19.0203 39.5136 18.6022 39.3353C18.184 39.1571 17.8137 38.883 17.5212 38.5351C17.0198 37.8686 17.2851 37.246 18.1125 37.1457C18.566 37.1154 19.0204 37.1926 19.4386 37.3708C19.8568 37.5491 20.227 37.8234 20.5194 38.1715Z" fill="#37474F"/>
<path d="M20.6888 32.3967C20.9647 32.378 21.2412 32.4251 21.4954 32.5341C21.7497 32.6431 21.9744 32.8108 22.1513 33.0235C22.2189 33.0953 22.266 33.184 22.2877 33.2803C22.3094 33.3766 22.3048 33.4769 22.2745 33.5709L20.0473 38.7942C20.0006 38.8811 19.9313 38.954 19.8468 39.0051C19.7623 39.0562 19.6656 39.0836 19.5668 39.0846C19.2908 39.1034 19.0143 39.0564 18.76 38.9474C18.5057 38.8384 18.281 38.6706 18.1043 38.4578C18.0366 38.3855 17.9896 38.2964 17.9679 38.1998C17.9462 38.1032 17.9507 38.0026 17.981 37.9083L20.2082 32.685C20.2556 32.5987 20.325 32.5265 20.4095 32.4758C20.4939 32.4252 20.5903 32.3979 20.6888 32.3967Z" fill="#BA68C8"/>
<path opacity="0.2" d="M20.6888 32.3967C20.9647 32.378 21.2412 32.4251 21.4954 32.5341C21.7497 32.6431 21.9744 32.8108 22.1513 33.0235C22.2189 33.0953 22.266 33.184 22.2877 33.2803C22.3094 33.3766 22.3048 33.4769 22.2745 33.5709L20.0473 38.7942C20.0006 38.8811 19.9313 38.954 19.8468 39.0051C19.7623 39.0562 19.6656 39.0836 19.5668 39.0846C19.2908 39.1034 19.0143 39.0564 18.76 38.9474C18.5057 38.8384 18.281 38.6706 18.1043 38.4578C18.0366 38.3855 17.9896 38.2964 17.9679 38.1998C17.9462 38.1032 17.9507 38.0026 17.981 37.9083L20.2082 32.685C20.2556 32.5987 20.325 32.5265 20.4095 32.4758C20.4939 32.4252 20.5903 32.3979 20.6888 32.3967Z" fill="black"/>
<path opacity="0.2" d="M19.182 35.0981L19.3366 35.1879L19.3596 35.2025L19.3888 35.2192L19.4223 35.236C19.5204 35.2942 19.6215 35.3472 19.7252 35.3947C19.8502 35.458 19.9786 35.5145 20.1097 35.564C20.225 35.614 20.3428 35.6579 20.4628 35.6956C20.5236 35.7175 20.5857 35.7357 20.6487 35.7499C20.7166 35.7757 20.7865 35.7959 20.8576 35.8105C20.9287 35.8314 20.9934 35.8481 21.0666 35.8628C21.1165 35.8772 21.1675 35.8877 21.2191 35.8941H21.2713L22.2679 33.5541C22.2982 33.4601 22.3028 33.3598 22.2811 33.2635C22.2594 33.1672 22.2123 33.0785 22.1447 33.0067C22.084 32.9286 22.0138 32.8584 21.9357 32.7977C21.3137 32.9883 20.6698 33.0985 20.0198 33.1258L19.182 35.0981Z" fill="black"/>
<path opacity="0.15" d="M19.1072 39.5004L11.8594 57.7694C12.1417 57.8167 12.4291 57.8258 12.7139 57.7966C13.3219 57.7214 13.7105 57.4477 13.8421 57.0674L20.7118 39.0826C20.6052 39.3354 20.3315 39.513 19.9179 39.5631C19.646 39.5884 19.3719 39.5672 19.1072 39.5004Z" fill="black"/>
<path d="M41.7511 10.7639C41.7511 10.6135 41.7385 10.4651 41.726 10.3168C41.7135 10.1684 41.7093 10.0264 41.6947 9.88221C41.6947 9.78401 41.6759 9.6879 41.6633 9.5918C41.6383 9.34108 41.6027 9.09245 41.5609 8.85636C41.5421 8.74771 41.5233 8.64743 41.5024 8.53042C41.4815 8.41342 41.4607 8.32149 41.4377 8.22747C41.375 7.95377 41.3081 7.68634 41.2287 7.42936C41.189 7.30818 41.1514 7.187 41.1096 7.0679C41.1022 7.04972 41.0966 7.03082 41.0929 7.01149C41.0491 6.8924 41.0073 6.77958 40.9613 6.66885C40.9153 6.55811 40.8589 6.40768 40.8004 6.2865C40.7419 6.16532 40.719 6.10473 40.6709 6.01698C40.6439 5.9505 40.6118 5.88623 40.5748 5.82476C40.5372 5.74746 40.4975 5.66806 40.4515 5.59285C40.443 5.57544 40.4332 5.55868 40.4223 5.54271C40.3847 5.47585 40.345 5.40899 40.3053 5.33377C40.2656 5.25856 40.2489 5.24811 40.2238 5.20633C40.0339 4.91071 39.8201 4.63119 39.5845 4.3706L39.4675 4.23688C39.434 4.19928 39.4006 4.16585 39.3672 4.13242C39.3337 4.09899 39.2836 4.04676 39.2376 4.00288C39.1172 3.87965 38.9888 3.76449 38.8532 3.65814C38.7905 3.60382 38.7237 3.55159 38.6568 3.50353C38.5899 3.45548 38.5231 3.40325 38.4479 3.35519C38.3392 3.27789 38.2285 3.20476 38.1178 3.14626L38.03 3.09194L38.0112 3.07731L35.9428 1.85924L35.9135 1.84253C34.9073 1.28052 33.7712 0.992349 32.6187 1.0068C30.9013 1.0068 28.9624 1.56883 26.9065 2.75347C19.8488 6.82554 14.1262 16.7268 14.1262 24.8751C14.1262 28.9388 15.549 31.7991 17.8451 33.1384H17.8681L19.9407 34.3523L19.9637 34.3669L19.993 34.3836C20.0055 34.3836 20.0159 34.3961 20.0264 34.4003C20.1245 34.4586 20.2256 34.5116 20.3293 34.5591C20.4547 34.6218 20.5842 34.6782 20.7159 34.7283C20.83 34.7789 20.9472 34.8222 21.0669 34.8579C21.1273 34.8815 21.1895 34.9003 21.2528 34.9143C21.3207 34.94 21.3906 34.9603 21.4617 34.9749C21.5328 34.9958 21.5975 35.0125 21.6707 35.0271C21.7209 35.0405 21.7718 35.051 21.8232 35.0584C21.913 35.0773 22.0071 35.0961 22.1011 35.1065C22.1216 35.1149 22.1436 35.1191 22.1658 35.119C22.2745 35.1357 22.3873 35.1525 22.496 35.1629C24.3993 35.3718 26.6119 34.8265 28.9728 33.4601C36.0326 29.386 41.7553 19.4722 41.7553 11.3259C41.7615 11.1504 41.7573 10.9582 41.7511 10.7639ZM18.4636 29.9856C18.17 28.8958 18.0252 27.7713 18.0332 26.6427C18.0332 18.9122 23.6743 9.13215 30.3706 5.27109C31.3483 4.69253 32.4036 4.25635 33.5045 3.97572C34.0314 3.84285 34.5721 3.77272 35.1154 3.76679C35.389 3.7655 35.6622 3.78646 35.9323 3.82947H35.9553C37.3238 5.44869 37.5244 8.04361 37.5244 9.42883C37.5244 17.1593 31.8832 26.9394 25.1974 30.7983C23.4967 31.7803 21.8545 32.3006 20.4568 32.3006C20.1655 32.3024 19.8753 32.2651 19.5939 32.1898C19.0714 31.5425 18.6868 30.7953 18.4636 29.9939V29.9856Z" fill="#37474F"/>
<path opacity="0.25" d="M39.9228 10.7995C39.9228 14.9008 38.3286 19.585 35.8319 23.655C35.7149 23.8493 35.5937 24.0395 35.4705 24.2296C35.3472 24.4197 35.2615 24.5555 35.1508 24.7185C34.9147 25.0674 34.6786 25.41 34.43 25.7464C34.313 25.908 34.1939 26.0668 34.0727 26.2228C33.9411 26.3962 33.8074 26.5675 33.6737 26.7368C33.4167 27.0606 33.1492 27.3761 32.8797 27.6832C32.7021 27.8922 32.5204 28.0906 32.3386 28.2849C30.9554 29.8066 29.3543 31.1148 27.5875 32.1669C27.2678 32.3528 26.9607 32.52 26.6389 32.6725C25.6221 33.1913 24.5202 33.5225 23.3859 33.6503C23.2075 33.6685 23.0282 33.6775 22.8489 33.6775C22.7549 33.6775 22.6671 33.6775 22.5773 33.6775C22.4071 33.671 22.2375 33.6535 22.0696 33.6252C21.9881 33.6127 21.9066 33.6002 21.8293 33.5814C21.752 33.5626 21.6726 33.5479 21.5953 33.5249C20.8035 33.3232 20.0997 32.8675 19.5917 32.2275C19.8724 32.3021 20.162 32.3386 20.4525 32.3361C21.8565 32.3361 23.4924 31.8201 25.1952 30.8381C31.881 26.9791 37.5222 17.1886 37.5222 9.46649C37.5222 8.07919 37.3132 5.49679 35.951 3.86713H35.9301C37.6747 4.14709 38.665 5.32965 39.225 6.70233C39.383 7.09075 39.5102 7.49105 39.6052 7.8995C39.6052 7.92249 39.6157 7.94338 39.6198 7.96636C39.6386 8.03949 39.6574 8.1147 39.67 8.18992C39.6825 8.26513 39.6992 8.33408 39.7118 8.39885C39.7131 8.41763 39.7131 8.43648 39.7118 8.45526C39.7264 8.53257 39.741 8.60987 39.7536 8.68509C39.7974 8.97132 39.8329 9.2492 39.8559 9.52081C39.8559 9.60021 39.8706 9.67333 39.8747 9.74646C39.8789 9.81958 39.8747 9.85928 39.8873 9.9136C39.8873 9.93658 39.8873 9.95957 39.8873 9.98255C39.8873 10.0431 39.8873 10.1016 39.8977 10.1601C39.8988 10.1761 39.8988 10.1922 39.8977 10.2082C39.8977 10.2834 39.8977 10.3531 39.8977 10.4171C39.9228 10.5425 39.9228 10.6678 39.9228 10.7995Z" fill="black"/>
<path d="M19.7631 34.2771L17.8451 33.1489C15.5469 31.8055 14.1262 28.9473 14.1262 24.8898C14.1262 21.2565 15.2648 17.2722 17.1494 13.6075L19.3348 14.8611C17.4544 18.5174 16.2009 22.4579 16.2009 26.0933C16.1967 30.0755 17.5505 32.8961 19.7631 34.2771Z" fill="#263238"/>
<path d="M38.0384 3.08573L38.0196 3.07111L35.9511 1.85513L35.9219 1.83633C34.9157 1.27404 33.7796 0.985851 32.627 1.0006C30.9096 1.0006 28.9707 1.56262 26.9148 2.74727C23.0037 5.00581 19.504 9.05908 17.1619 13.6117L19.3369 14.8904L19.2888 14.9802C21.6393 10.4798 25.1222 6.41401 28.9916 3.96743C32.4933 1.76111 35.8174 1.72977 38.1386 3.1317L38.0384 3.08573Z" fill="#455A64"/>
<path opacity="0.1" d="M38.8114 10.1435C38.8114 17.8739 33.1703 27.654 26.474 31.5151C25.4967 32.0945 24.4413 32.5307 23.34 32.8105C22.8132 32.9433 22.2725 33.0135 21.7292 33.0194C21.1714 33.0261 20.617 32.9312 20.0932 32.7394C19.2575 32.0416 18.7603 31.0345 18.4594 29.9982C18.1658 28.9085 18.021 27.7839 18.029 26.6553C18.029 18.9249 23.6702 9.14479 30.3664 5.28374C31.3442 4.70518 32.3995 4.26899 33.5004 3.98836C34.0272 3.85549 34.5679 3.78536 35.1112 3.77943C35.6689 3.77228 36.2232 3.86643 36.7472 4.05731C37.5829 4.75305 38.0801 5.76428 38.381 6.79849C38.6748 7.88895 38.8196 9.01417 38.8114 10.1435Z" fill="#9E99E3"/>
<path opacity="0.3" d="M21.7336 33.0235C22.2769 33.0176 22.8177 32.9475 23.3445 32.8146C24.4457 32.5349 25.5011 32.0987 26.4785 31.5192C33.1643 27.6582 38.8159 17.8698 38.8159 10.1476C38.8239 9.01903 38.6791 7.89452 38.3855 6.80474C38.0846 5.77262 37.5853 4.76348 36.7579 4.06774L36.6785 4.04058C36.6054 4.01342 36.5322 3.99043 36.4549 3.96745L36.3233 3.93193C36.2481 3.91104 36.1687 3.89642 36.0914 3.8797L35.9535 3.85254H35.9389H35.9535C37.3241 5.47176 37.5247 8.0646 37.5247 9.4519C37.5247 17.1824 31.8835 26.9645 25.1977 30.8235C23.4949 31.8055 21.8548 32.3215 20.455 32.3215C20.1645 32.324 19.875 32.2875 19.5942 32.2129L19.6067 32.2296C19.7595 32.4131 19.928 32.583 20.1102 32.7373C20.6297 32.9298 21.1797 33.0267 21.7336 33.0235Z" fill="white"/>
</svg>
