<svg width="78" height="78" viewBox="0 0 78 78" fill="none" xmlns="http://www.w3.org/2000/svg">
<g opacity="0.3">
<path opacity="0.3" d="M50.5688 64.2551C50.552 64.2552 50.5354 64.2509 50.5208 64.2425L44.3322 60.6698C44.3179 60.661 44.3059 60.6488 44.2975 60.6342C44.2891 60.6196 44.2845 60.6031 44.2842 60.5862C44.2843 60.5696 44.2888 60.5533 44.2972 60.539C44.3057 60.5247 44.3177 60.5129 44.3322 60.5048L52.0627 56.0378C52.077 56.0295 52.0932 56.0252 52.1097 56.0252C52.1262 56.0252 52.1424 56.0295 52.1567 56.0378L58.3474 59.6105C58.3618 59.6191 58.3736 59.6314 58.3817 59.6461C58.3898 59.6608 58.3938 59.6773 58.3933 59.6941C58.3937 59.7106 58.3896 59.7268 58.3815 59.7411C58.3734 59.7555 58.3616 59.7674 58.3474 59.7756L50.6169 64.2425C50.6022 64.2509 50.5857 64.2552 50.5688 64.2551ZM44.5704 60.5862L50.5688 64.0503L58.1154 59.6941L52.1128 56.23L44.5704 60.5862Z" fill="#24307A"/>
</g>
<path d="M50.5687 63.2669V35.5981L45.9263 32.9175V60.5863L50.5687 63.2669Z" fill="#24307A"/>
<path opacity="0.2" d="M50.5687 63.2669V35.5981L45.9263 32.9175V60.5863L50.5687 63.2669Z" fill="black"/>
<path d="M50.5684 63.2668L56.7569 59.6941L56.759 32.0253L50.5684 35.5981V63.2668Z" fill="#24307A"/>
<path d="M56.7594 32.0253L52.1169 29.3447L45.9263 32.9174L50.5687 35.598L56.7594 32.0253Z" fill="#24307A"/>
<path opacity="0.25" d="M56.7594 32.0253L52.1169 29.3447L45.9263 32.9174L50.5687 35.598L56.7594 32.0253Z" fill="white"/>
<path opacity="0.3" d="M56.7594 32.0253L50.506 35.4727L48.4752 34.3382L45.9263 32.9175L48.4334 34.4176L50.4872 35.6419C50.4371 36.3398 50.4246 60.4358 50.4329 61.1316C50.4383 61.8454 50.4843 62.5583 50.5708 63.2668C50.6566 62.5582 50.702 61.8453 50.7066 61.1316C50.7066 60.4567 50.7066 36.3836 50.6565 35.7088L56.7594 32.0253Z" fill="white"/>
<g opacity="0.3">
<path opacity="0.3" d="M38.9624 70.9596C38.9456 70.9595 38.9291 70.9552 38.9143 70.9471L32.7258 67.3744C32.7114 67.3656 32.6995 67.3533 32.6911 67.3387C32.6827 67.3241 32.6781 67.3076 32.6777 67.2908C32.6778 67.2742 32.6823 67.2579 32.6908 67.2436C32.6992 67.2293 32.7113 67.2174 32.7258 67.2093L40.4562 62.7424C40.4709 62.7341 40.4875 62.7298 40.5043 62.7298C40.5211 62.7298 40.5377 62.7341 40.5524 62.7424L46.7409 66.3151C46.7557 66.3232 46.7681 66.3351 46.7767 66.3496C46.7853 66.3642 46.7899 66.3807 46.7899 66.3976C46.7899 66.4145 46.7853 66.4311 46.7767 66.4456C46.7681 66.4601 46.7557 66.4721 46.7409 66.4801L39.0104 70.9471C38.9958 70.9554 38.9792 70.9597 38.9624 70.9596ZM32.964 67.2908L38.9624 70.7507L46.509 66.3945L40.5106 62.9304L32.964 67.2908Z" fill="#24307A"/>
</g>
<path d="M38.9623 69.9673V50.3131L34.3198 47.6325V67.2867L38.9623 69.9673Z" fill="#24307A"/>
<path opacity="0.1" d="M38.9623 69.9673V50.3131L34.3198 47.6325V67.2867L38.9623 69.9673Z" fill="white"/>
<path d="M38.9624 69.9673L45.153 66.3925V46.7404L38.9624 50.3131V69.9673Z" fill="#24307A"/>
<path opacity="0.3" d="M38.9624 69.9673L45.153 66.3925V46.7404L38.9624 50.3131V69.9673Z" fill="white"/>
<path d="M45.1529 46.7403L40.5105 44.0597L34.3198 47.6324L38.9623 50.313L45.1529 46.7403Z" fill="#24307A"/>
<path opacity="0.55" d="M45.1529 46.7403L40.5105 44.0597L34.3198 47.6324L38.9623 50.313L45.1529 46.7403Z" fill="white"/>
<path opacity="0.3" d="M39.0438 50.4259L45.1529 46.7404L38.8996 50.1877C38.2248 49.8054 37.5478 49.4293 36.8709 49.0532L34.3198 47.6325L36.827 49.1305C37.5123 49.5484 38.1955 49.9537 38.8829 50.357C38.862 51.0799 38.839 56.3533 38.8327 57.0762C38.8265 57.7991 38.8223 64.8067 38.8327 65.5421C38.8432 66.2775 38.8495 67.0172 38.8724 67.7547C38.8954 68.4922 38.9226 69.2297 38.9685 69.9673C39.0166 69.2297 39.0459 68.4922 39.0647 67.7547C39.0835 67.0172 39.1002 66.2796 39.1044 65.5421C39.1085 64.8046 39.1044 57.8116 39.1044 57.0762C39.0876 56.3763 39.0647 51.1258 39.0438 50.4259Z" fill="white"/>
<g opacity="0.3">
<path opacity="0.3" d="M27.3584 77.6559C27.3416 77.656 27.325 77.6517 27.3103 77.6434L21.1197 74.0706C21.1056 74.0618 21.0939 74.0494 21.0859 74.0348C21.0779 74.0202 21.0737 74.0037 21.0737 73.9871C21.0734 73.9706 21.0775 73.9544 21.0856 73.94C21.0937 73.9257 21.1055 73.9138 21.1197 73.9056L28.8502 69.4386C28.8645 69.4304 28.8807 69.426 28.8972 69.426C28.9137 69.426 28.9299 69.4304 28.9442 69.4386L35.1348 73.0114C35.1493 73.0199 35.1611 73.0322 35.1692 73.0469C35.1773 73.0616 35.1813 73.0782 35.1808 73.0949C35.1811 73.1114 35.177 73.1276 35.169 73.1419C35.1609 73.1563 35.1491 73.1682 35.1348 73.1764L27.4044 77.6434C27.3905 77.6516 27.3746 77.6559 27.3584 77.6559ZM21.3579 73.9871L27.3584 77.4511L34.905 73.0949L28.9045 69.6308L21.3579 73.9871Z" fill="#24307A"/>
</g>
<path d="M27.3584 76.6678L27.3563 63.2669L22.7139 60.5863L22.716 73.9872L27.3584 76.6678Z" fill="#24307A"/>
<path opacity="0.45" d="M27.3584 76.6678L27.3563 63.2669L22.7139 60.5863L22.716 73.9872L27.3584 76.6678Z" fill="black"/>
<path d="M27.358 76.6676L33.5466 73.0927L33.5487 59.694L27.356 63.2667L27.358 76.6676Z" fill="#24307A"/>
<path opacity="0.3" d="M27.358 76.6676L33.5466 73.0927L33.5487 59.694L27.356 63.2667L27.358 76.6676Z" fill="black"/>
<path d="M33.5491 59.6941L28.9066 57.0135L22.7139 60.5863L27.3563 63.2669L33.5491 59.6941Z" fill="#24307A"/>
<path opacity="0.15" d="M33.5491 59.6941L28.9066 57.0135L22.7139 60.5863L27.3563 63.2669L33.5491 59.6941Z" fill="black"/>
<path opacity="0.3" d="M33.5491 59.694L27.2957 63.1393L25.2649 62.0068L22.7139 60.5861L25.221 62.0841L27.2748 63.3106C27.2268 63.7284 27.2143 74.9272 27.2226 75.3513C27.2271 75.7934 27.2733 76.2341 27.3605 76.6676C27.446 76.2339 27.4914 75.7933 27.4963 75.3513C27.4963 74.9481 27.4963 63.7786 27.4503 63.3753L33.5491 59.694Z" fill="white"/>
<g opacity="0.3">
<path opacity="0.3" d="M62.1728 57.5547C62.1567 57.5544 62.1409 57.5501 62.1269 57.5421L55.9362 53.9694C55.9217 53.9608 55.9097 53.9486 55.9012 53.9339C55.8928 53.9193 55.8883 53.9027 55.8882 53.8858C55.8883 53.8692 55.8928 53.8529 55.9012 53.8386C55.9097 53.8243 55.9217 53.8125 55.9362 53.8043L63.6667 49.3374C63.6814 49.3292 63.6979 49.3248 63.7148 49.3248C63.7316 49.3248 63.7481 49.3292 63.7628 49.3374L69.9514 52.9101C69.9662 52.9182 69.9785 52.9301 69.9872 52.9447C69.9958 52.9592 70.0003 52.9758 70.0003 52.9926C70.0003 53.0095 69.9958 53.0261 69.9872 53.0406C69.9785 53.0551 69.9662 53.0671 69.9514 53.0752L62.2209 57.5421C62.2063 57.5504 62.1897 57.5548 62.1728 57.5547ZM56.1744 53.8858L62.1728 57.3499L69.7194 52.9916L63.721 49.5275L56.1744 53.8858Z" fill="#24307A"/>
</g>
<path d="M62.1727 56.5663V16.3073L57.5303 13.6267L57.5324 53.8857L62.1727 56.5663Z" fill="#24307A"/>
<path opacity="0.3" d="M62.1727 56.5663V16.3073L57.5303 13.6267L57.5324 53.8857L62.1727 56.5663Z" fill="white"/>
<path d="M62.1724 56.5665L68.363 52.9937V12.7347L62.1724 16.3075V56.5665Z" fill="#24307A"/>
<path opacity="0.55" d="M62.1724 56.5665L68.363 52.9937V12.7347L62.1724 16.3075V56.5665Z" fill="white"/>
<path d="M68.3634 12.7346L63.7209 10.054L57.5303 13.6267L62.1727 16.3073L68.3634 12.7346Z" fill="#24307A"/>
<path opacity="0.75" d="M68.3634 12.7346L63.7209 10.054L57.5303 13.6267L62.1727 16.3073L68.3634 12.7346Z" fill="white"/>
<path opacity="0.3" d="M62.2542 16.4286L68.3634 12.741L62.1101 16.1883C61.4373 15.806 60.7583 15.4299 60.0813 15.0538L57.5303 13.6331L60.0375 15.1332C60.7227 15.5511 61.406 15.9543 62.0954 16.3576C62.0724 17.1766 62.0495 17.9956 62.0432 18.8146C62.0369 19.6336 62.0432 50.7372 62.0432 51.5709C62.0432 52.4045 62.0599 53.2423 62.085 54.078C62.1101 54.9138 62.133 55.7495 62.1811 56.5852C62.2271 55.7495 62.2563 54.9138 62.2751 54.078C62.2939 53.2423 62.3127 52.4066 62.3169 51.5709C62.3211 50.7351 62.3169 19.6482 62.3169 18.8146C62.2981 18.0144 62.2772 17.2184 62.2542 16.4286Z" fill="white"/>
<path d="M17.3082 37.6199C17.4148 37.3692 17.6885 37.1874 18.1022 37.1373C18.5582 37.1064 19.015 37.184 19.4352 37.3638C19.8554 37.5435 20.227 37.8204 20.5195 38.1715C20.7702 38.5037 20.8308 38.8276 20.7284 39.0783L13.8442 57.0714C13.7125 57.4517 13.3239 57.7254 12.7159 57.8006C11.5584 57.9406 10.0521 57.2992 9.35213 56.3673C8.98441 55.8785 8.91546 55.4063 9.09515 55.049L17.3082 37.6199Z" fill="#455A64"/>
<path d="M20.5194 38.1715C21.0208 38.838 20.7554 39.4606 19.9281 39.5609C19.4745 39.5908 19.0203 39.5136 18.6022 39.3353C18.184 39.1571 17.8137 38.883 17.5212 38.5351C17.0198 37.8686 17.2851 37.246 18.1125 37.1457C18.566 37.1154 19.0204 37.1926 19.4386 37.3708C19.8568 37.5491 20.227 37.8234 20.5194 38.1715Z" fill="#37474F"/>
<path d="M20.6889 32.3967C20.9649 32.378 21.2414 32.4251 21.4956 32.5341C21.7499 32.6431 21.9746 32.8108 22.1515 33.0235C22.2191 33.0953 22.2662 33.184 22.2879 33.2803C22.3096 33.3766 22.305 33.4769 22.2747 33.5709L20.0475 38.7942C20.0008 38.8811 19.9315 38.954 19.847 39.0051C19.7624 39.0562 19.6657 39.0836 19.567 39.0846C19.291 39.1034 19.0145 39.0564 18.7602 38.9474C18.5059 38.8384 18.2812 38.6706 18.1045 38.4578C18.0368 38.3855 17.9897 38.2964 17.9681 38.1998C17.9464 38.1032 17.9509 38.0026 17.9812 37.9083L20.2084 32.685C20.2558 32.5987 20.3252 32.5265 20.4097 32.4758C20.4941 32.4252 20.5905 32.3979 20.6889 32.3967Z" fill="#24307A"/>
<path opacity="0.2" d="M20.6889 32.3967C20.9649 32.378 21.2414 32.4251 21.4956 32.5341C21.7499 32.6431 21.9746 32.8108 22.1515 33.0235C22.2191 33.0953 22.2662 33.184 22.2879 33.2803C22.3096 33.3766 22.305 33.4769 22.2747 33.5709L20.0475 38.7942C20.0008 38.8811 19.9315 38.954 19.847 39.0051C19.7624 39.0562 19.6657 39.0836 19.567 39.0846C19.291 39.1034 19.0145 39.0564 18.7602 38.9474C18.5059 38.8384 18.2812 38.6706 18.1045 38.4578C18.0368 38.3855 17.9897 38.2964 17.9681 38.1998C17.9464 38.1032 17.9509 38.0026 17.9812 37.9083L20.2084 32.685C20.2558 32.5987 20.3252 32.5265 20.4097 32.4758C20.4941 32.4252 20.5905 32.3979 20.6889 32.3967Z" fill="black"/>
<path opacity="0.2" d="M19.1821 35.0981L19.3367 35.1879L19.3597 35.2025L19.389 35.2192L19.4224 35.236C19.5205 35.2942 19.6216 35.3472 19.7253 35.3947C19.8504 35.458 19.9787 35.5145 20.1098 35.564C20.2251 35.614 20.343 35.6579 20.4629 35.6956C20.5237 35.7175 20.5858 35.7357 20.6488 35.7499C20.7167 35.7757 20.7866 35.7959 20.8578 35.8105C20.9288 35.8314 20.9936 35.8481 21.0667 35.8628C21.1166 35.8772 21.1676 35.8877 21.2192 35.8941H21.2714L22.268 33.5541C22.2983 33.4601 22.3029 33.3598 22.2812 33.2635C22.2595 33.1672 22.2124 33.0785 22.1448 33.0067C22.0841 32.9286 22.0139 32.8584 21.9358 32.7977C21.3138 32.9883 20.6699 33.0985 20.0199 33.1258L19.1821 35.0981Z" fill="black"/>
<path opacity="0.15" d="M19.1072 39.5004L11.8594 57.7694C12.1417 57.8167 12.4291 57.8258 12.7139 57.7966C13.3219 57.7214 13.7105 57.4477 13.8421 57.0674L20.7118 39.0826C20.6052 39.3354 20.3315 39.513 19.9179 39.5631C19.646 39.5884 19.3719 39.5672 19.1072 39.5004Z" fill="black"/>
<path d="M41.7509 10.7639C41.7509 10.6135 41.7384 10.4651 41.7258 10.3168C41.7133 10.1684 41.7091 10.0264 41.6945 9.88221C41.6945 9.78401 41.6757 9.6879 41.6631 9.5918C41.6381 9.34108 41.6025 9.09245 41.5608 8.85636C41.542 8.74771 41.5232 8.64743 41.5023 8.53042C41.4814 8.41342 41.4605 8.32149 41.4375 8.22747C41.3748 7.95377 41.308 7.68634 41.2286 7.42936C41.1889 7.30818 41.1513 7.187 41.1095 7.0679C41.102 7.04972 41.0964 7.03082 41.0928 7.01149C41.0489 6.8924 41.0071 6.77958 40.9611 6.66885C40.9152 6.55811 40.8588 6.40768 40.8003 6.2865C40.7418 6.16532 40.7188 6.10473 40.6707 6.01698C40.6437 5.9505 40.6116 5.88623 40.5746 5.82476C40.537 5.74746 40.4973 5.66806 40.4513 5.59285C40.4428 5.57544 40.4331 5.55868 40.4221 5.54271C40.3845 5.47585 40.3448 5.40899 40.3051 5.33377C40.2654 5.25856 40.2487 5.24811 40.2236 5.20633C40.0337 4.91071 39.8199 4.63119 39.5843 4.3706L39.4673 4.23688C39.4338 4.19928 39.4004 4.16585 39.367 4.13242C39.3335 4.09899 39.2834 4.04676 39.2374 4.00288C39.117 3.87965 38.9886 3.76449 38.853 3.65814C38.7903 3.60382 38.7235 3.55159 38.6566 3.50353C38.5898 3.45548 38.5229 3.40325 38.4477 3.35519C38.339 3.27789 38.2283 3.20476 38.1176 3.14626L38.0298 3.09194L38.011 3.07731L35.9426 1.85924L35.9133 1.84253C34.9071 1.28052 33.771 0.992349 32.6185 1.0068C30.9011 1.0068 28.9622 1.56883 26.9063 2.75347C19.8486 6.82554 14.126 16.7268 14.126 24.8751C14.126 28.9388 15.5488 31.7991 17.845 33.1384H17.8679L19.9405 34.3523L19.9635 34.3669L19.9928 34.3836C20.0053 34.3836 20.0158 34.3961 20.0262 34.4003C20.1243 34.4586 20.2254 34.5116 20.3292 34.5591C20.4545 34.6218 20.584 34.6782 20.7157 34.7283C20.8298 34.7789 20.947 34.8222 21.0667 34.8579C21.1271 34.8815 21.1893 34.9003 21.2526 34.9143C21.3205 34.94 21.3904 34.9603 21.4616 34.9749C21.5326 34.9958 21.5974 35.0125 21.6705 35.0271C21.7207 35.0405 21.7716 35.051 21.823 35.0584C21.9129 35.0773 22.0069 35.0961 22.1009 35.1065C22.1214 35.1149 22.1435 35.1191 22.1657 35.119C22.2743 35.1357 22.3871 35.1525 22.4958 35.1629C24.3991 35.3718 26.6117 34.8265 28.9726 33.4601C36.0324 29.386 41.7551 19.4722 41.7551 11.3259C41.7613 11.1504 41.7572 10.9582 41.7509 10.7639ZM18.4634 29.9856C18.1698 28.8958 18.025 27.7713 18.033 26.6427C18.033 18.9122 23.6741 9.13215 30.3704 5.27109C31.3482 4.69253 32.4034 4.25635 33.5044 3.97572C34.0312 3.84285 34.5719 3.77272 35.1152 3.76679C35.3888 3.7655 35.662 3.78646 35.9321 3.82947H35.9551C37.3236 5.44869 37.5242 8.04361 37.5242 9.42883C37.5242 17.1593 31.8831 26.9394 25.1973 30.7983C23.4966 31.7803 21.8543 32.3006 20.4566 32.3006C20.1653 32.3024 19.8751 32.2651 19.5937 32.1898C19.0712 31.5425 18.6866 30.7953 18.4634 29.9939V29.9856Z" fill="#37474F"/>
<path opacity="0.25" d="M39.9229 10.7995C39.9229 14.9008 38.3288 19.585 35.832 23.655C35.715 23.8493 35.5939 24.0395 35.4706 24.2296C35.3473 24.4197 35.2617 24.5555 35.1509 24.7185C34.9148 25.0674 34.6787 25.41 34.4301 25.7464C34.3131 25.908 34.194 26.0668 34.0728 26.2228C33.9412 26.3962 33.8075 26.5675 33.6738 26.7368C33.4168 27.0606 33.1494 27.3761 32.8798 27.6832C32.7022 27.8922 32.5205 28.0906 32.3387 28.2849C30.9555 29.8066 29.3544 31.1148 27.5876 32.1669C27.2679 32.3528 26.9608 32.52 26.6391 32.6725C25.6223 33.1913 24.5203 33.5225 23.386 33.6503C23.2076 33.6685 23.0284 33.6775 22.849 33.6775C22.755 33.6775 22.6673 33.6775 22.5774 33.6775C22.4072 33.671 22.2377 33.6535 22.0697 33.6252C21.9882 33.6127 21.9068 33.6002 21.8295 33.5814C21.7521 33.5626 21.6728 33.5479 21.5954 33.5249C20.8036 33.3232 20.0998 32.8675 19.5918 32.2275C19.8726 32.3021 20.1621 32.3386 20.4526 32.3361C21.8566 32.3361 23.4925 31.8201 25.1953 30.8381C31.8811 26.9791 37.5223 17.1886 37.5223 9.46649C37.5223 8.07919 37.3134 5.49679 35.9511 3.86713H35.9302C37.6748 4.14709 38.6651 5.32965 39.2251 6.70233C39.3832 7.09075 39.5103 7.49105 39.6053 7.8995C39.6053 7.92249 39.6158 7.94338 39.62 7.96636C39.6388 8.03949 39.6576 8.1147 39.6701 8.18992C39.6826 8.26513 39.6994 8.33408 39.7119 8.39885C39.7133 8.41763 39.7133 8.43648 39.7119 8.45526C39.7265 8.53257 39.7411 8.60987 39.7537 8.68509C39.7976 8.97132 39.8331 9.2492 39.8561 9.52081C39.8561 9.60021 39.8707 9.67333 39.8749 9.74646C39.879 9.81958 39.8749 9.85928 39.8874 9.9136C39.8874 9.93658 39.8874 9.95957 39.8874 9.98255C39.8874 10.0431 39.8874 10.1016 39.8978 10.1601C39.8989 10.1761 39.8989 10.1922 39.8978 10.2082C39.8978 10.2834 39.8978 10.3531 39.8978 10.4171C39.9229 10.5425 39.9229 10.6678 39.9229 10.7995Z" fill="black"/>
<path d="M19.7629 34.2771L17.845 33.1489C15.5467 31.8055 14.126 28.9473 14.126 24.8898C14.126 21.2565 15.2647 17.2722 17.1492 13.6075L19.3346 14.8611C17.4543 18.5174 16.2007 22.4579 16.2007 26.0933C16.1965 30.0755 17.5504 32.8961 19.7629 34.2771Z" fill="#263238"/>
<path d="M38.0385 3.08573L38.0197 3.07111L35.9513 1.85513L35.9221 1.83633C34.9159 1.27404 33.7797 0.985851 32.6272 1.0006C30.9098 1.0006 28.9709 1.56262 26.915 2.74727C23.0038 5.00581 19.5042 9.05908 17.1621 13.6117L19.3371 14.8904L19.289 14.9802C21.6395 10.4798 25.1224 6.41401 28.9918 3.96743C32.4935 1.76111 35.8176 1.72977 38.1388 3.1317L38.0385 3.08573Z" fill="#455A64"/>
<path opacity="0.1" d="M38.8115 10.1435C38.8115 17.8739 33.1704 27.654 26.4741 31.5151C25.4968 32.0945 24.4414 32.5307 23.3402 32.8105C22.8133 32.9433 22.2726 33.0135 21.7293 33.0194C21.1715 33.0261 20.6172 32.9312 20.0934 32.7394C19.2576 32.0416 18.7604 31.0345 18.4595 29.9982C18.1659 28.9085 18.0211 27.7839 18.0291 26.6553C18.0291 18.9249 23.6703 9.14479 30.3665 5.28374C31.3443 4.70518 32.3996 4.26899 33.5005 3.98836C34.0273 3.85549 34.568 3.78536 35.1114 3.77943C35.669 3.77228 36.2233 3.86643 36.7473 4.05731C37.583 4.75305 38.0803 5.76428 38.3811 6.79849C38.6749 7.88895 38.8197 9.01417 38.8115 10.1435Z" fill="#24307A"/>
<path opacity="0.3" d="M21.7337 33.0235C22.277 33.0176 22.8177 32.9475 23.3446 32.8146C24.4458 32.5349 25.5012 32.0987 26.4785 31.5192C33.1643 27.6582 38.8159 17.8698 38.8159 10.1476C38.8239 9.01903 38.6792 7.89452 38.3855 6.80474C38.0847 5.77262 37.5853 4.76348 36.758 4.06774L36.6786 4.04058C36.6054 4.01342 36.5323 3.99043 36.455 3.96745L36.3234 3.93193C36.2482 3.91104 36.1688 3.89642 36.0915 3.8797L35.9536 3.85254H35.9389H35.9536C37.3242 5.47176 37.5247 8.0646 37.5247 9.4519C37.5247 17.1824 31.8836 26.9645 25.1978 30.8235C23.495 31.8055 21.8549 32.3215 20.455 32.3215C20.1645 32.324 19.875 32.2875 19.5942 32.2129L19.6068 32.2296C19.7596 32.4131 19.9281 32.583 20.1103 32.7373C20.6298 32.9298 21.1797 33.0267 21.7337 33.0235Z" fill="white"/>
</svg>
