<svg width="78" height="78" viewBox="0 0 78 78" fill="none" xmlns="http://www.w3.org/2000/svg">
<path d="M41.0872 26.1296C41.6485 26.5317 42.1083 27.0592 42.43 27.6701C42.7518 28.281 42.9266 28.9586 42.9407 29.6489C42.9407 30.8689 42.2837 31.4965 41.4156 31.2033V57.0115L50.8005 37.2682C50.9454 36.8906 50.9454 36.4727 50.8005 36.0951C48.2974 30.3609 46.7024 24.2719 46.0729 18.0469C46.0443 17.846 45.9729 17.6536 45.8636 17.4826C45.7544 17.3116 45.6097 17.166 45.4394 17.0557L36.6411 11.982C36.5812 11.9367 36.5098 11.9092 36.435 11.9027C36.3601 11.8962 36.285 11.911 36.2182 11.9453C36.1514 11.9796 36.0957 12.0321 36.0574 12.0967C36.0191 12.1613 35.9998 12.2354 36.0018 12.3105C35.4152 17.8065 33.7318 21.8888 31.4501 24.628C31.3286 24.7871 31.2439 24.9712 31.2023 25.167C31.1607 25.3628 31.1632 25.5654 31.2097 25.7601L40.7118 56.6596V30.8513C40.2448 30.4307 39.8683 29.9195 39.6051 29.3488C39.3419 28.778 39.1976 28.1597 39.1809 27.5315C39.2278 26.1707 40.0548 25.5431 41.0872 26.1296Z" fill="#BA68C8"/>
<path d="M26.9511 28.2528L36.4532 59.1523L37.0984 58.7769V59.5277L41.4095 57.0466L50.7943 37.3032C50.9393 36.9257 50.9393 36.5077 50.7943 36.1301C48.2913 30.3959 46.6963 24.3069 46.0667 18.082C46.0382 17.8811 45.9668 17.6886 45.8575 17.5176C45.7483 17.3466 45.6036 17.201 45.4333 17.0907L36.635 12.017C36.4537 11.9234 36.2525 11.8746 36.0485 11.8746C35.8444 11.8746 35.6433 11.9234 35.4619 12.017L32.3825 13.8119C32.2131 13.9238 32.0688 14.0698 31.9588 14.2404C31.8487 14.411 31.7753 14.6027 31.7432 14.8032C31.1566 20.2991 29.4732 24.3815 27.1915 27.1207C27.0703 27.28 26.9859 27.464 26.9443 27.6598C26.9028 27.8555 26.9051 28.058 26.9511 28.2528Z" fill="#BA68C8"/>
<path opacity="0.4" d="M26.9511 28.2528L36.4532 59.1523L37.0984 58.7769V59.5277L41.4095 57.0466L50.7943 37.3032C50.9393 36.9257 50.9393 36.5077 50.7943 36.1301C48.2913 30.3959 46.6963 24.3069 46.0667 18.082C46.0382 17.8811 45.9668 17.6886 45.8575 17.5176C45.7483 17.3466 45.6036 17.201 45.4333 17.0907L36.635 12.017C36.4537 11.9234 36.2525 11.8746 36.0485 11.8746C35.8444 11.8746 35.6433 11.9234 35.4619 12.017L32.3825 13.8119C32.2131 13.9238 32.0688 14.0698 31.9588 14.2404C31.8487 14.411 31.7753 14.6027 31.7432 14.8032C31.1566 20.2991 29.4732 24.3815 27.1915 27.1207C27.0703 27.28 26.9859 27.464 26.9443 27.6598C26.9028 27.8555 26.9051 28.058 26.9511 28.2528Z" fill="white"/>
<path opacity="0.15" d="M34.9221 30.0242C34.9369 30.652 35.0804 31.27 35.3437 31.8401C35.607 32.4101 35.9846 32.92 36.453 33.3382V59.1465L37.0982 58.7711V33.7136C37.9663 34.0128 38.6292 33.3851 38.6292 32.171C38.6147 31.4807 38.4396 30.8034 38.1179 30.1925C37.7962 29.5816 37.3366 29.0541 36.7756 28.6517C35.7492 28.0299 34.9221 28.6634 34.9221 30.0242Z" fill="black"/>
<path d="M26.9508 28.2528L36.453 59.1523V33.3441C35.9845 32.9259 35.6069 32.416 35.3436 31.8459C35.0803 31.2759 34.9368 30.6578 34.9221 30.03C34.9221 28.6692 35.7491 28.0358 36.7756 28.6282C37.3365 29.0306 37.7961 29.5581 38.1178 30.169C38.4395 30.7799 38.6146 31.4572 38.6291 32.1475C38.6291 33.3616 37.9663 33.9893 37.0982 33.6901V59.4984L46.483 39.7609C46.6356 39.3746 46.6356 38.9448 46.483 38.5585C43.9792 32.8245 42.3842 26.7354 41.7554 20.5103C41.7257 20.3097 41.6539 20.1177 41.5447 19.9469C41.4355 19.776 41.2914 19.6302 41.1219 19.519L32.3236 14.4454C32.2637 14.4001 32.1923 14.3726 32.1175 14.3661C32.0427 14.3596 31.9675 14.3744 31.9007 14.4087C31.834 14.443 31.7782 14.4955 31.7399 14.5601C31.7016 14.6247 31.6823 14.6988 31.6843 14.7738C31.0977 20.2698 29.4143 24.3522 27.1327 27.0914C27.0171 27.2589 26.9407 27.4503 26.9092 27.6514C26.8778 27.8524 26.892 28.058 26.9508 28.2528Z" fill="#BA68C8"/>
<g opacity="0.8">
<path opacity="0.8" d="M26.9508 28.2528L36.453 59.1523V33.3441C35.9845 32.9259 35.6069 32.416 35.3436 31.8459C35.0803 31.2759 34.9368 30.6578 34.9221 30.03C34.9221 28.6692 35.7491 28.0358 36.7756 28.6282C37.3365 29.0306 37.7961 29.5581 38.1178 30.169C38.4395 30.7799 38.6146 31.4572 38.6291 32.1475C38.6291 33.3616 37.9663 33.9893 37.0982 33.6901V59.4984L46.483 39.7609C46.6356 39.3746 46.6356 38.9448 46.483 38.5585C43.9792 32.8245 42.3842 26.7354 41.7554 20.5103C41.7257 20.3097 41.6539 20.1177 41.5447 19.9469C41.4355 19.776 41.2914 19.6302 41.1219 19.519L32.3236 14.4454C32.2637 14.4001 32.1923 14.3726 32.1175 14.3661C32.0427 14.3596 31.9675 14.3744 31.9007 14.4087C31.834 14.443 31.7782 14.4955 31.7399 14.5601C31.7016 14.6247 31.6823 14.6988 31.6843 14.7738C31.0977 20.2698 29.4143 24.3522 27.1327 27.0914C27.0171 27.2589 26.9407 27.4503 26.9092 27.6514C26.8778 27.8524 26.892 28.058 26.9508 28.2528Z" fill="white"/>
</g>
<path opacity="0.15" d="M31.7604 14.7094C31.7707 14.6425 31.7985 14.5796 31.8411 14.527C31.8836 14.4745 31.9394 14.4342 32.0027 14.4103C32.066 14.3864 32.1345 14.3798 32.2012 14.3911C32.2679 14.4025 32.3303 14.4313 32.3822 14.4748L41.1804 19.5484C41.372 19.6672 41.528 19.8354 41.6321 20.0353L45.9432 17.5424C45.8338 17.3479 45.6789 17.1829 45.4916 17.0615L36.6933 11.9878C36.512 11.8942 36.3109 11.8453 36.1068 11.8453C35.9027 11.8453 35.7016 11.8942 35.5202 11.9878L32.3822 13.812C32.0649 14.0177 31.8416 14.3401 31.7604 14.7094Z" fill="black"/>
<path d="M48.0431 9.18408L34.1242 1.14247C33.9429 1.04885 33.7418 1 33.5377 1C33.3336 1 33.1325 1.04885 32.9511 1.14247L29.7896 2.96664C29.6194 3.07398 29.4773 3.22051 29.3753 3.39398C29.2732 3.56745 29.2142 3.76282 29.2031 3.96378V10.0932C29.2142 10.2942 29.2732 10.4896 29.3753 10.663C29.4773 10.8365 29.6194 10.983 29.7896 11.0904L43.7378 19.1261C43.9151 19.2158 44.111 19.2625 44.3097 19.2625C44.5084 19.2625 44.7043 19.2158 44.8816 19.1261L48.0431 17.3313C48.2122 17.2241 48.3536 17.0784 48.4555 16.9061C48.5575 16.7338 48.6171 16.5398 48.6296 16.34V10.1753C48.6171 9.97553 48.5575 9.78151 48.4555 9.60921C48.3536 9.4369 48.2122 9.29121 48.0431 9.18408Z" fill="#37474F"/>
<path d="M29.2447 3.86993C29.2857 3.57079 29.5262 3.46521 29.8312 3.62944L43.7325 11.6652C43.9045 11.772 44.046 11.9215 44.1431 12.0992L48.4484 9.61226C48.3521 9.43743 48.2128 9.29005 48.0436 9.18408L34.1248 1.14247C33.9434 1.04885 33.7423 1 33.5382 1C33.3342 1 33.133 1.04885 32.9517 1.14247L29.7902 2.96664C29.6418 3.07132 29.5167 3.20564 29.4228 3.36111C29.3289 3.51659 29.2682 3.68984 29.2447 3.86993Z" fill="#455A64"/>
<path d="M43.8258 19.173H43.8727C43.8727 19.173 43.8727 19.173 43.9138 19.173C43.9313 19.1755 43.949 19.1755 43.9666 19.173H44.0369H44.0839H44.1836C44.424 19.2031 44.6678 19.158 44.8816 19.0439L48.0431 17.3312C48.2122 17.2241 48.3536 17.0784 48.4555 16.9061C48.5575 16.7338 48.6171 16.5398 48.6296 16.3399V10.1753C48.6257 9.96819 48.567 9.76582 48.4595 9.58875L44.1543 12.0757C44.2633 12.2521 44.3222 12.4549 44.3244 12.6623V18.7976C44.3244 19.0557 44.1894 19.2082 44.0018 19.2082H43.9196L43.8258 19.173Z" fill="#263238"/>
<path opacity="0.15" d="M37.0987 59.5278L41.4099 57.0467L50.7947 37.3034C50.8686 37.1329 50.9084 36.9496 50.912 36.7638L46.6067 39.2449C46.6054 39.4335 46.5634 39.6195 46.4835 39.7904L37.0987 59.5278Z" fill="black"/>
<path opacity="0.15" d="M36.453 33.3382V59.1465L37.0982 58.7711V33.7136C37.9663 34.0128 38.6292 33.3852 38.6292 32.171V32.083L36.453 33.3382Z" fill="black"/>
<path d="M16.5514 25.9184C16.5514 25.2145 17.0441 24.933 17.6541 25.279C17.9731 25.4891 18.2384 25.7709 18.4289 26.1019C18.6194 26.433 18.7297 26.804 18.751 27.1853C18.751 27.7719 18.4284 28.0417 17.9826 27.9478C18.5691 40.9165 27.6783 56.1961 38.7524 62.5895C44.2542 65.7628 49.41 66.2848 53.2754 64.0559C56.9237 61.9502 59.0177 57.6038 59.2406 51.7853C58.7734 51.3547 58.4916 50.7596 58.4546 50.1253C58.4546 49.4215 58.9473 49.1399 59.5573 49.486C59.8763 49.696 60.1416 49.9779 60.3321 50.3089C60.5226 50.6399 60.6329 51.011 60.6542 51.3923C60.6542 51.9788 60.2964 52.2838 59.8154 52.1372C59.5163 58.0027 57.3226 62.3901 53.5628 64.5603C51.859 65.5369 49.9248 66.0392 47.9612 66.015C45.0285 66.015 41.8024 65.0413 38.4591 63.0822C27.1328 56.5422 17.8653 40.8344 17.3843 27.6076C17.14 27.3957 16.9404 27.1371 16.7974 26.847C16.6544 26.5569 16.5708 26.2412 16.5514 25.9184Z" fill="#455A64"/>
<path d="M17.6248 49.533C18.1641 49.8864 18.5415 50.4389 18.6747 51.0698L58.5133 74.0567C58.654 73.6226 59.0646 73.4701 59.5573 73.7693C59.8766 73.979 60.1422 74.2607 60.3327 74.5918C60.5232 74.9229 60.6333 75.2941 60.6542 75.6756C60.6542 76.3736 60.1615 76.661 59.5573 76.309C59.2808 76.1291 59.0436 75.8949 58.8601 75.6207C58.6766 75.3465 58.5506 75.0379 58.4898 74.7136L18.7041 51.7443C18.575 52.2077 18.1586 52.3308 17.6541 52.0669C17.3348 51.861 17.0685 51.5826 16.8769 51.2544C16.6853 50.9263 16.5738 50.5575 16.5514 50.1782C16.5514 49.4626 17.0382 49.1811 17.6248 49.533Z" fill="#455A64"/>
<path d="M58.0213 50.7647C58.0213 51.0745 58.1131 51.3772 58.2852 51.6348C58.4573 51.8923 58.7019 52.0931 58.988 52.2116C59.2742 52.3301 59.5891 52.3611 59.8929 52.3007C60.1967 52.2403 60.4757 52.0911 60.6947 51.8721C60.9138 51.6531 61.0629 51.374 61.1233 51.0702C61.1838 50.7664 61.1528 50.4516 61.0342 50.1654C60.9157 49.8792 60.715 49.6346 60.4574 49.4626C60.1999 49.2905 59.8971 49.1986 59.5874 49.1986C59.3815 49.1978 59.1775 49.2378 58.9871 49.3163C58.7968 49.3947 58.6238 49.51 58.4782 49.6556C58.3326 49.8012 58.2173 49.9741 58.1389 50.1645C58.0605 50.3548 58.0205 50.5588 58.0213 50.7647Z" fill="#455A64"/>
<path d="M59.6453 76.5729C58.7837 76.5729 58.0851 75.8744 58.0851 75.0127C58.0851 74.151 58.7837 73.4525 59.6453 73.4525C60.507 73.4525 61.2056 74.151 61.2056 75.0127C61.2056 75.8744 60.507 76.5729 59.6453 76.5729Z" fill="#455A64"/>
<path d="M15.9999 50.8409C15.9999 51.1507 16.0917 51.4534 16.2638 51.711C16.4359 51.9685 16.6805 52.1693 16.9667 52.2878C17.2528 52.4063 17.5677 52.4373 17.8715 52.3769C18.1753 52.3165 18.4544 52.1673 18.6734 51.9483C18.8924 51.7293 19.0416 51.4502 19.102 51.1464C19.1624 50.8427 19.1314 50.5278 19.0129 50.2416C18.8943 49.9554 18.6936 49.7108 18.4361 49.5388C18.1785 49.3667 17.8757 49.2748 17.566 49.2748C17.3601 49.274 17.1561 49.314 16.9658 49.3925C16.7754 49.4709 16.6024 49.5862 16.4569 49.7318C16.3113 49.8774 16.196 50.0503 16.1175 50.2407C16.0391 50.431 15.9991 50.635 15.9999 50.8409Z" fill="#455A64"/>
<path d="M17.7066 28.0828C16.8449 28.0828 16.1464 27.3843 16.1464 26.5226C16.1464 25.6609 16.8449 24.9623 17.7066 24.9623C18.5683 24.9623 19.2668 25.6609 19.2668 26.5226C19.2668 27.3843 18.5683 28.0828 17.7066 28.0828Z" fill="#455A64"/>
</svg>
