<svg width="78" height="78" viewBox="0 0 78 78" fill="none" xmlns="http://www.w3.org/2000/svg">
<path d="M41.0516 73.0678L37.4407 66.2371L40.361 57.7923V52.6256L31.417 57.7923V62.959L35.2608 69.615C35.3194 69.7216 35.4136 69.8041 35.5271 69.848L41.0516 73.0678Z" fill="#24307A"/>
<path opacity="0.2" d="M41.0516 73.0678L37.4407 66.2371L40.361 57.7923V52.6256L31.417 57.7923V62.959L35.2608 69.615C35.3194 69.7216 35.4136 69.8041 35.5271 69.848L41.0516 73.0678Z" fill="black"/>
<path d="M62.4006 11.5497C62.3495 10.6179 62.0795 9.71123 61.6126 8.90319C61.1458 8.09516 60.4951 7.40849 59.7133 6.89884L57.5334 5.64252C56.7021 5.22014 55.7827 5 54.8502 5C53.9177 5 52.9984 5.22014 52.167 5.64252L18.679 25.0198C17.8984 25.5299 17.2489 26.2168 16.7834 27.0249C16.318 27.833 16.0496 28.7394 16 29.6707V66.5366C16.0508 67.4664 16.3198 68.3712 16.7853 69.1777C17.2507 69.9843 17.8994 70.6699 18.679 71.1792L20.8672 72.4438C21.6986 72.8662 22.6179 73.0863 23.5504 73.0863C24.4829 73.0863 25.4022 72.8662 26.2336 72.4438L37.008 66.2204L40.8518 72.8764C40.9055 72.9725 40.9859 73.0508 41.0833 73.1018C41.1807 73.1528 41.2909 73.1744 41.4003 73.1638C41.5098 73.1532 41.6138 73.1109 41.6996 73.0422C41.7854 72.9734 41.8493 72.8811 41.8835 72.7766L45.9437 61.062L59.7382 53.0748C60.5165 52.5616 61.163 51.8724 61.6255 51.063C62.088 50.2536 62.3536 49.3467 62.4006 48.4156V11.5497Z" fill="#24307A"/>
<path opacity="0.2" d="M16 66.5366C16.0508 67.4664 16.3198 68.3712 16.7853 69.1777C17.2507 69.9843 17.8994 70.6699 18.679 71.1792L20.8672 72.4438C21.6238 72.8243 22.4524 73.0403 23.2984 73.0776C24.1445 73.1149 24.9889 72.9726 25.776 72.6601C24.5114 73.1344 23.5462 72.4272 23.5462 70.8963V34.0304C23.5815 33.0958 23.8535 32.1854 24.3366 31.3846L16.7821 27.0249C16.3012 27.8262 16.032 28.7367 16 29.6707V66.5366Z" fill="black"/>
<path opacity="0.5" d="M62.3342 10.7843C62.0264 9.64444 60.9864 9.28668 59.7467 9.99388L26.2337 29.3795C25.4385 29.8697 24.7869 30.5615 24.3451 31.3846L16.7905 27.0249C17.24 26.2095 17.8901 25.5223 18.6792 25.0281L52.1838 5.64252C53.0152 5.22014 53.9345 5 54.867 5C55.7995 5 56.7188 5.22014 57.5502 5.64252L59.7467 6.90716C60.4191 7.34339 60.9954 7.91224 61.4403 8.57889C61.8852 9.24555 62.1894 9.99599 62.3342 10.7843Z" fill="white"/>
<path d="M28.4799 48.4988C28.4729 48.2374 28.5181 47.9771 28.6131 47.7334C28.7265 47.486 28.8572 47.2469 29.0041 47.0179L36.2924 35.2451C36.3231 35.1917 36.3624 35.1439 36.4089 35.1036L36.4921 35.0454C36.5287 35.0126 36.5761 34.9945 36.6252 34.9945C36.6743 34.9945 36.7217 35.0126 36.7583 35.0454C36.8007 35.0942 36.8329 35.151 36.8529 35.2124C36.8729 35.2739 36.8804 35.3387 36.8748 35.4031V39.9459C36.8842 40.2752 36.8097 40.6016 36.6585 40.8943C36.5492 41.1096 36.427 41.318 36.2924 41.5183L32.5318 47.2425L36.2924 48.9731C36.4214 49.0155 36.5444 49.0742 36.6585 49.1478C36.7999 49.2393 36.8748 49.4723 36.8748 49.8383V53.0665C36.8739 53.2342 36.8341 53.3994 36.7583 53.5491C36.7069 53.6853 36.6137 53.8018 36.4921 53.8819H36.4089C36.371 53.894 36.3303 53.894 36.2924 53.8819L29.0041 50.5539C28.854 50.4983 28.7198 50.4069 28.6131 50.2876C28.5035 50.1052 28.4567 49.8918 28.4799 49.6803V48.4988Z" fill="white"/>
<path d="M44.3546 30.3113C44.4255 30.06 44.5173 29.8151 44.6292 29.5791C44.7447 29.3384 44.9303 29.1383 45.1617 29.0051L47.5994 27.5657C47.6387 27.5317 47.6889 27.5131 47.7409 27.5131C47.7928 27.5131 47.843 27.5317 47.8823 27.5657C47.9676 27.6678 48.0094 27.7992 47.9988 27.9318C48.0091 28.023 48.0091 28.1151 47.9988 28.2063L41.842 54.4476C41.7814 54.6919 41.695 54.9289 41.5841 55.1548C41.4692 55.4029 41.2803 55.6093 41.0433 55.7456L38.6555 57.1267C38.6162 57.1606 38.5659 57.1793 38.514 57.1793C38.4621 57.1793 38.4119 57.1606 38.3726 57.1267C38.3282 57.0774 38.2949 57.0193 38.2748 56.9562C38.2547 56.8931 38.2484 56.8264 38.2561 56.7606C38.2454 56.6722 38.2454 56.5828 38.2561 56.4943L44.3546 30.3113Z" fill="white"/>
<path d="M57.7413 34.5545C57.7498 34.8161 57.7045 35.0766 57.6082 35.32C57.4948 35.5673 57.3641 35.8064 57.2172 36.0355L49.9206 47.8166C49.8854 47.864 49.8465 47.9086 49.8041 47.9497L49.7209 48.0163C49.6829 48.0496 49.6341 48.068 49.5836 48.068C49.5331 48.068 49.4843 48.0496 49.4463 48.0163C49.4041 47.9676 49.3727 47.9106 49.354 47.8489C49.3354 47.7873 49.33 47.7224 49.3382 47.6585V43.0992C49.3254 42.7757 49.3971 42.4546 49.5462 42.1673C49.6876 41.9177 49.8124 41.718 49.9206 41.56L53.1071 36.6345L49.9206 35.4198C49.7864 35.3762 49.66 35.3117 49.5462 35.2284C49.4047 35.1286 49.3382 34.8956 49.3382 34.5212V29.9785C49.3374 29.8116 49.3743 29.6466 49.4463 29.496C49.5058 29.3643 49.6009 29.2519 49.7209 29.1715H49.8041H49.9206L57.2089 32.4995C57.3849 32.5467 57.5367 32.6586 57.6339 32.8128C57.7311 32.967 57.7665 33.1523 57.733 33.3315L57.7413 34.5545Z" fill="white"/>
</svg>
