<svg width="78" height="78" viewBox="0 0 78 78" fill="none" xmlns="http://www.w3.org/2000/svg">
<path d="M41.0516 73.0678L37.4407 66.2371L40.361 57.7923V52.6256L31.417 57.7923V62.959L35.2608 69.615C35.3194 69.7216 35.4136 69.8041 35.5271 69.848L41.0516 73.0678Z" fill="#BA68C8"/>
<path opacity="0.2" d="M41.0516 73.0678L37.4407 66.2371L40.361 57.7923V52.6256L31.417 57.7923V62.959L35.2608 69.615C35.3194 69.7216 35.4136 69.8041 35.5271 69.848L41.0516 73.0678Z" fill="black"/>
<path d="M62.4006 11.5497C62.3495 10.6179 62.0795 9.71123 61.6126 8.90319C61.1458 8.09516 60.4951 7.40849 59.7133 6.89884L57.5334 5.64252C56.7021 5.22014 55.7827 5 54.8502 5C53.9177 5 52.9984 5.22014 52.167 5.64252L18.679 25.0198C17.8984 25.5299 17.2489 26.2168 16.7834 27.0249C16.318 27.833 16.0496 28.7394 16 29.6707V66.5366C16.0508 67.4664 16.3198 68.3712 16.7853 69.1777C17.2507 69.9843 17.8994 70.6699 18.679 71.1792L20.8672 72.4438C21.6986 72.8662 22.6179 73.0863 23.5504 73.0863C24.4829 73.0863 25.4022 72.8662 26.2336 72.4438L37.008 66.2204L40.8518 72.8764C40.9055 72.9725 40.9859 73.0508 41.0833 73.1018C41.1807 73.1528 41.2909 73.1744 41.4003 73.1638C41.5098 73.1532 41.6138 73.1109 41.6996 73.0422C41.7854 72.9734 41.8493 72.8811 41.8835 72.7766L45.9437 61.062L59.7382 53.0748C60.5165 52.5616 61.163 51.8724 61.6255 51.063C62.088 50.2536 62.3536 49.3467 62.4006 48.4156V11.5497Z" fill="#BA68C8"/>
<path opacity="0.2" d="M16 66.5366C16.0508 67.4664 16.3198 68.3712 16.7853 69.1777C17.2507 69.9843 17.8994 70.6699 18.679 71.1792L20.8672 72.4438C21.6238 72.8243 22.4524 73.0403 23.2984 73.0776C24.1445 73.1149 24.9889 72.9726 25.776 72.6601C24.5114 73.1344 23.5462 72.4272 23.5462 70.8963V34.0304C23.5815 33.0958 23.8535 32.1854 24.3366 31.3846L16.7821 27.0249C16.3012 27.8262 16.032 28.7367 16 29.6707V66.5366Z" fill="black"/>
<path opacity="0.5" d="M62.3341 10.7843C62.0262 9.64444 60.9863 9.28668 59.7466 9.99388L26.2336 29.3795C25.4383 29.8697 24.7868 30.5615 24.345 31.3846L16.7904 27.0249C17.2399 26.2095 17.8899 25.5223 18.679 25.0281L52.1837 5.64252C53.0151 5.22014 53.9344 5 54.8669 5C55.7994 5 56.7187 5.22014 57.5501 5.64252L59.7466 6.90716C60.4189 7.34339 60.9952 7.91224 61.4402 8.57889C61.8851 9.24555 62.1892 9.99599 62.3341 10.7843Z" fill="white"/>
<path d="M28.48 48.4988C28.4729 48.2374 28.5182 47.9771 28.6131 47.7334C28.7266 47.486 28.8573 47.2469 29.0042 47.0179L36.2925 35.2451C36.3231 35.1917 36.3625 35.1439 36.409 35.1036L36.4922 35.0454C36.5288 35.0126 36.5762 34.9945 36.6253 34.9945C36.6744 34.9945 36.7218 35.0126 36.7584 35.0454C36.8008 35.0942 36.8329 35.151 36.853 35.2124C36.873 35.2739 36.8804 35.3387 36.8749 35.4031V39.9459C36.8842 40.2752 36.8098 40.6016 36.6586 40.8943C36.5493 41.1096 36.427 41.318 36.2925 41.5183L32.5318 47.2425L36.2925 48.9731C36.4214 49.0155 36.5445 49.0742 36.6586 49.1478C36.8 49.2393 36.8749 49.4723 36.8749 49.8383V53.0665C36.874 53.2342 36.8341 53.3994 36.7584 53.5491C36.707 53.6853 36.6138 53.8018 36.4922 53.8819H36.409C36.3711 53.894 36.3304 53.894 36.2925 53.8819L29.0042 50.5539C28.8541 50.4983 28.7198 50.4069 28.6131 50.2876C28.5035 50.1052 28.4568 49.8918 28.48 49.6803V48.4988Z" fill="white"/>
<path d="M44.3546 30.3113C44.4254 30.06 44.5173 29.8151 44.6291 29.5791C44.7446 29.3384 44.9303 29.1383 45.1616 29.0051L47.5994 27.5657C47.6387 27.5317 47.6889 27.5131 47.7408 27.5131C47.7928 27.5131 47.843 27.5317 47.8823 27.5657C47.9676 27.6678 48.0094 27.7992 47.9987 27.9318C48.009 28.023 48.009 28.1151 47.9987 28.2063L41.8419 54.4476C41.7814 54.6919 41.6949 54.9289 41.584 55.1548C41.4691 55.4029 41.2802 55.6093 41.0432 55.7456L38.6554 57.1267C38.6161 57.1606 38.5659 57.1793 38.5139 57.1793C38.462 57.1793 38.4118 57.1606 38.3725 57.1267C38.3282 57.0774 38.2949 57.0193 38.2748 56.9562C38.2547 56.8931 38.2483 56.8264 38.256 56.7606C38.2453 56.6722 38.2453 56.5828 38.256 56.4943L44.3546 30.3113Z" fill="white"/>
<path d="M57.7415 34.5545C57.7499 34.8161 57.7046 35.0766 57.6083 35.32C57.4949 35.5673 57.3642 35.8064 57.2173 36.0355L49.9207 47.8166C49.8855 47.864 49.8466 47.9086 49.8042 47.9497L49.721 48.0163C49.683 48.0496 49.6342 48.068 49.5837 48.068C49.5332 48.068 49.4844 48.0496 49.4464 48.0163C49.4042 47.9676 49.3728 47.9106 49.3542 47.8489C49.3355 47.7873 49.3301 47.7224 49.3383 47.6585V43.0992C49.3255 42.7757 49.3972 42.4546 49.5463 42.1673C49.6877 41.9177 49.8125 41.718 49.9207 41.56L53.1072 36.6345L49.9207 35.4198C49.7865 35.3762 49.6602 35.3117 49.5463 35.2284C49.4048 35.1286 49.3383 34.8956 49.3383 34.5212V29.9785C49.3375 29.8116 49.3744 29.6466 49.4464 29.496C49.5059 29.3643 49.601 29.2519 49.721 29.1715H49.8042H49.9207L57.209 32.4995C57.3851 32.5467 57.5369 32.6586 57.634 32.8128C57.7312 32.967 57.7666 33.1523 57.7331 33.3315L57.7415 34.5545Z" fill="white"/>
</svg>
