<svg width="256" height="256" viewBox="0 0 256 256" fill="none" xmlns="http://www.w3.org/2000/svg">
<path d="M256 0H0V85H256V0Z" fill="#9E99E3"/>
<path d="M256 170H0V256H256V170Z" fill="black"/>
<path d="M256 85H0V170H256V85Z" fill="#5F5FA0"/>
<path d="M127.066 42C142.608 42 155.877 45.9622 166.897 53.8974C177.861 61.8547 184.809 72.6107 187.728 86.1764L156.58 92.608C155.504 85.4081 152.156 79.657 146.515 75.3107C140.852 70.9644 134.135 68.7693 126.364 68.7693C118.879 68.7693 112.853 70.6131 108.276 74.279C103.7 77.9448 101.406 82.4447 101.406 87.7788C101.406 96.1641 106.52 101.323 116.749 103.364L149.72 109.971C162.386 112.737 172.264 117.797 179.354 125.194C186.455 132.614 190 142.195 190 153.961C190 168.756 184.446 180.5 173.284 189.225C162.155 197.929 147.415 202.264 129.119 202.264C112.184 202.264 97.696 198.346 85.7437 190.455C73.7255 182.607 66.8439 171.357 65 156.694L97.718 150.054C101.702 166.693 113.171 175.001 132.093 175.001C140.775 175.001 147.492 173.179 152.244 169.535C156.986 165.87 159.334 161.216 159.334 155.564C159.334 150.954 157.995 147.398 155.306 144.808C152.661 142.217 148.041 140.22 141.466 138.848L108.946 132.669C82.0998 127.005 68.6548 112.342 68.6548 88.7227C68.6548 74.8277 73.9231 63.5778 84.4486 54.9401C95.007 46.3353 109.198 42 127.066 42Z" fill="white"/>
</svg>
