<svg width="36" height="36" viewBox="0 0 36 36" fill="none" xmlns="http://www.w3.org/2000/svg">
<path d="M19.125 7.3125H16.875C15.2345 7.31436 13.6618 7.96685 12.5018 9.12683C11.3419 10.2868 10.6894 11.8595 10.6875 13.5V22.5C10.6893 24.0014 11.2361 25.451 12.2264 26.5795C13.2166 27.708 14.5829 28.4386 16.0713 28.6355C16.1453 28.67 16.226 28.6878 16.3076 28.6875H19.125C20.7655 28.6856 22.3382 28.0331 23.4982 26.8732C24.6581 25.7132 25.3106 24.1405 25.3125 22.5V13.5C25.3106 11.8595 24.6581 10.2868 23.4982 9.12683C22.3382 7.96685 20.7655 7.31436 19.125 7.3125ZM24.1875 22.5C24.186 23.8422 23.6521 25.129 22.703 26.078C21.754 27.0271 20.4672 27.561 19.125 27.5625H16.875C15.5328 27.561 14.246 27.0271 13.297 26.078C12.3479 25.129 11.814 23.8422 11.8125 22.5V17.4375H24.1875V22.5ZM24.1875 16.3125H11.8125V13.5C11.814 12.1578 12.3479 10.871 13.297 9.92198C14.246 8.97291 15.5328 8.43904 16.875 8.4375H19.125C20.4672 8.43904 21.754 8.97291 22.703 9.92198C23.6521 10.871 24.186 12.1578 24.1875 13.5V16.3125Z" fill="white"/>
<path d="M16.875 15.1875H19.125C19.2742 15.1875 19.4173 15.1282 19.5227 15.0227C19.6282 14.9173 19.6875 14.7742 19.6875 14.625V10.125C19.6875 9.97582 19.6282 9.83274 19.5227 9.72725C19.4173 9.62176 19.2742 9.5625 19.125 9.5625H16.875C16.7258 9.5625 16.5827 9.62176 16.4773 9.72725C16.3718 9.83274 16.3125 9.97582 16.3125 10.125V14.625C16.3125 14.7742 16.3718 14.9173 16.4773 15.0227C16.5827 15.1282 16.7258 15.1875 16.875 15.1875ZM17.4375 10.6875H18.5625V14.0625H17.4375V10.6875Z" fill="white"/>
<path d="M14.625 6.1875H21.375C21.4795 6.1875 21.5819 6.15841 21.6707 6.10349C21.7596 6.04857 21.8314 5.96999 21.8781 5.87656C21.9248 5.78312 21.9446 5.67852 21.9352 5.57448C21.9258 5.47044 21.8877 5.37107 21.825 5.2875L18.45 0.7875C18.3976 0.71764 18.3297 0.660938 18.2516 0.621885C18.1734 0.582832 18.0873 0.5625 18 0.5625C17.9127 0.5625 17.8265 0.582832 17.7484 0.621885C17.6703 0.660938 17.6024 0.71764 17.55 0.7875L14.175 5.2875C14.1123 5.37107 14.0742 5.47044 14.0648 5.57448C14.0554 5.67852 14.0752 5.78312 14.1219 5.87656C14.1686 5.96999 14.2404 6.04857 14.3293 6.10349C14.4181 6.15841 14.5205 6.1875 14.625 6.1875ZM18 2.06248L20.25 5.0625H15.75L18 2.06248Z" fill="white"/>
<path d="M21.375 29.8125H14.625C14.5205 29.8125 14.4181 29.8416 14.3293 29.8965C14.2404 29.9514 14.1686 30.03 14.1219 30.1234C14.0752 30.2169 14.0554 30.3215 14.0648 30.4255C14.0742 30.5296 14.1123 30.6289 14.175 30.7125L17.55 35.2125C17.6024 35.2824 17.6703 35.3391 17.7484 35.3781C17.8265 35.4172 17.9127 35.4375 18 35.4375C18.0873 35.4375 18.1734 35.4172 18.2516 35.3781C18.3297 35.3391 18.3976 35.2824 18.45 35.2125L21.825 30.7125C21.8877 30.6289 21.9258 30.5296 21.9352 30.4255C21.9446 30.3215 21.9248 30.2169 21.8781 30.1234C21.8314 30.03 21.7596 29.9514 21.6707 29.8965C21.5819 29.8416 21.4795 29.8125 21.375 29.8125ZM18 33.9375L15.75 30.9375H20.25L18 33.9375Z" fill="white"/>
</svg>
