<svg width="80" height="80" viewBox="0 0 80 80" fill="none" xmlns="http://www.w3.org/2000/svg">
<path d="M80 38.9632C80 33.6632 73.3633 28.6399 63.1867 25.5266C65.5367 15.1566 64.4933 6.90325 59.8933 4.25992C58.7787 3.63565 57.5172 3.32143 56.24 3.34992V6.98325C56.99 6.98325 57.5933 7.13325 58.1 7.40992C60.3167 8.68325 61.28 13.5233 60.53 19.7533C60.35 21.2866 60.0567 22.8999 59.6967 24.5466C56.2888 23.7254 52.83 23.1318 49.3433 22.7699C47.2662 19.9042 45 17.1804 42.56 14.6166C47.8767 9.67659 52.8667 6.96992 56.26 6.96992V3.33325C51.7733 3.33325 45.9033 6.52992 39.9667 12.0733C34.0333 6.56659 28.16 3.39992 23.6767 3.39992V7.03325C27.0533 7.03325 32.06 9.72658 37.3767 14.6333C35.0933 17.0332 32.81 19.7533 30.64 22.7699C27.1461 23.1278 23.6812 23.727 20.27 24.5632C19.8933 22.9333 19.6167 21.3533 19.42 19.8366C18.6533 13.6033 19.6 8.76325 21.8033 7.47658C22.29 7.18325 22.9267 7.04992 23.6767 7.04992V3.41659C22.31 3.41659 21.0667 3.70992 19.9933 4.32659C15.41 6.96992 14.3833 15.2033 16.7467 25.5433C6.60333 28.6766 0 33.6799 0 38.9632C0 44.2632 6.63667 49.2866 16.8133 52.3966C14.4633 62.7699 15.5067 71.0232 20.1067 73.6632C21.1667 74.2832 22.4067 74.5766 23.7733 74.5766C28.26 74.5766 34.13 71.3799 40.0667 65.8366C46 71.3466 51.87 74.5099 56.3567 74.5099C57.6437 74.5371 58.9148 74.2219 60.04 73.5966C64.6233 70.9566 65.65 62.7232 63.2867 52.3832C73.3967 49.2699 80 44.2466 80 38.9632ZM58.7667 28.0866C58.1333 30.2661 57.3992 32.4151 56.5667 34.5266C55.2039 31.8758 53.7075 29.2958 52.0833 26.7966C54.4 27.1399 56.6333 27.5632 58.77 28.0866H58.7667ZM51.3 45.4532C50.03 47.6532 48.7233 49.7432 47.37 51.6832C42.4775 52.1145 37.5568 52.12 32.6633 51.6999C29.8565 47.6905 27.4018 43.4458 25.3267 39.0132C27.3986 34.5703 29.8429 30.3106 32.6333 26.2799C37.5246 25.8478 42.4442 25.8411 47.3367 26.2599C48.69 28.1999 50.0133 30.2732 51.2833 32.4599C52.5233 34.5932 53.65 36.7599 54.6767 38.9466C53.6386 41.1598 52.5121 43.3304 51.3 45.4532ZM56.5667 43.3332C57.4467 45.5166 58.2 47.7032 58.8167 49.8232C56.6833 50.3466 54.43 50.7866 52.1 51.1266C53.7175 48.6046 55.2082 46.0036 56.5667 43.3332ZM40.0333 60.7332C38.5167 59.1666 37 57.4232 35.5 55.5132C36.9667 55.5799 38.4667 55.6299 39.9833 55.6299C41.5167 55.6299 43.0333 55.5966 44.5167 55.5132C43.05 57.4232 41.5333 59.1666 40.0333 60.7332ZM27.9 51.1266C25.6525 50.8009 23.4212 50.3716 21.2133 49.8399C21.8167 47.7366 22.5667 45.5666 23.4133 43.3999C24.0833 44.6999 24.7867 46.0066 25.5533 47.3132C26.32 48.6166 27.1 49.8899 27.9 51.1266ZM39.95 17.1933C41.4667 18.7599 42.9833 20.5033 44.4833 22.4132C43.0167 22.3466 41.5167 22.2966 40 22.2966C38.4667 22.2966 36.95 22.3299 35.4667 22.4132C36.9333 20.5033 38.45 18.7599 39.95 17.1933ZM27.8833 26.7999C26.2662 29.3164 24.7755 31.9118 23.4167 34.5766C22.5607 32.4514 21.8098 30.2855 21.1667 28.0866C23.3 27.5799 25.5533 27.1399 27.8833 26.7999ZM13.1267 47.2132C7.35333 44.7532 3.62 41.5233 3.62 38.9632C3.62 36.4032 7.35333 33.1566 13.1267 30.7132C14.5267 30.1099 16.06 29.5699 17.6433 29.0666C18.5733 32.2599 19.7967 35.5866 21.31 38.9966C19.8812 42.2039 18.6729 45.5049 17.6933 48.8766C16.1448 48.3971 14.6208 47.842 13.1267 47.2132ZM21.9 70.5132C19.6833 69.2466 18.72 64.3999 19.47 58.1732C19.65 56.6399 19.9433 55.0232 20.3033 53.3766C23.4967 54.1599 26.9867 54.7632 30.6567 55.1566C32.7339 58.0222 35.0001 60.746 37.44 63.3099C32.1233 68.2499 27.1333 70.9566 23.74 70.9566C23.0998 70.9636 22.4678 70.8124 21.9 70.5166V70.5132ZM60.58 58.0899C61.3467 64.3199 60.4 69.1632 58.1967 70.4499C57.71 70.7432 57.0733 70.8732 56.3233 70.8732C52.9467 70.8732 47.94 68.1833 42.6233 63.2732C44.9067 60.8799 47.19 58.1566 49.36 55.1399C52.8539 54.782 56.3188 54.1828 59.73 53.3466C60.1067 54.9932 60.3967 56.5732 60.58 58.0899ZM66.8567 47.2132C65.4567 47.8166 63.9233 48.3566 62.34 48.8599C61.3432 45.471 60.1182 42.1534 58.6733 38.9299C60.1733 35.5399 61.3767 32.2299 62.29 29.0499C63.9067 29.5532 65.4367 30.1099 66.8733 30.7132C72.6467 33.1732 76.38 36.4032 76.38 38.9632C76.3633 41.5233 72.63 44.7699 66.8567 47.2132Z" fill="#373F41"/>
<path d="M39.9834 46.4162C41.9601 46.4162 43.8559 45.6309 45.2537 44.2332C46.6514 42.8354 47.4367 40.9396 47.4367 38.9629C47.4367 36.9861 46.6514 35.0903 45.2537 33.6926C43.8559 32.2948 41.9601 31.5095 39.9834 31.5095C38.0066 31.5095 36.1108 32.2948 34.7131 33.6926C33.3153 35.0903 32.53 36.9861 32.53 38.9629C32.53 40.9396 33.3153 42.8354 34.7131 44.2332C36.1108 45.6309 38.0066 46.4162 39.9834 46.4162Z" fill="#373F41"/>
</svg>
