<svg width="80" height="80" viewBox="0 0 80 80" fill="none" xmlns="http://www.w3.org/2000/svg">
<path d="M39.9999 73.2835C39.0833 73.2835 38.2266 73.0368 37.4266 72.6101L29.2966 67.7835C28.0799 67.1068 28.6899 66.8601 29.0566 66.7368C30.7099 66.1868 31.0166 66.0668 32.7266 65.0935C32.9133 64.9701 33.1566 65.0268 33.3433 65.1501L39.5766 68.8835C39.8233 69.0035 40.1299 69.0035 40.3133 68.8835L64.7099 54.7601C64.9566 54.6401 65.0766 54.3935 65.0766 54.0868V25.8935C65.0766 25.5901 64.9566 25.3435 64.7099 25.2235L40.3133 11.1601C40.0699 11.0368 39.7633 11.0368 39.5766 11.1601L15.1733 25.2201C14.9299 25.3401 14.8066 25.6502 14.8066 25.8902V54.0802C14.8066 54.3235 14.9299 54.6335 15.1733 54.7535L21.8399 58.6101C25.4466 60.4368 27.7133 58.2935 27.7133 56.1601V28.3401C27.7133 27.9735 28.0166 27.6035 28.4466 27.6035H31.5666C31.9266 27.6035 32.2999 27.9101 32.2999 28.3401V56.1635C32.2999 60.9935 29.6733 63.8101 25.0866 63.8101C23.6799 63.8101 22.5799 63.8101 19.4599 62.2768L13.0433 58.6135C12.2615 58.159 11.6126 57.5073 11.1616 56.7234C10.7106 55.9396 10.4733 55.0511 10.4733 54.1468V25.9535C10.4733 24.1201 11.4499 22.4068 13.0433 21.4901L37.4299 7.36682C38.2216 6.94343 39.1055 6.72192 40.0033 6.72192C40.901 6.72192 41.7849 6.94343 42.5766 7.36682L66.9666 21.4901C68.5633 22.4035 69.5366 24.1201 69.5366 25.9535V54.1468C69.5366 55.9768 68.5599 57.6901 66.9666 58.6135L42.5766 72.7335C41.7733 73.1001 40.8566 73.2835 39.9999 73.2835ZM47.5199 53.8968C36.8199 53.8968 34.6199 49.0035 34.6199 44.8501C34.6199 44.4835 34.9266 44.1135 35.3533 44.1135H38.5333C38.8999 44.1135 39.2033 44.3568 39.2033 44.7268C39.6933 47.9635 41.0966 49.5568 47.5833 49.5568C52.7166 49.5568 54.9233 48.3901 54.9233 45.6401C54.9233 44.0501 54.3066 42.8901 46.2999 42.0968C39.6366 41.4301 35.4799 39.9535 35.4799 34.6368C35.4799 29.6868 39.6366 26.7501 46.6099 26.7501C54.4333 26.7501 58.2866 29.4468 58.7733 35.3102C58.7674 35.508 58.7024 35.6996 58.5866 35.8601C58.4633 35.9801 58.2833 36.1035 58.0999 36.1035H54.9233C54.7662 36.1001 54.6148 36.0446 54.4929 35.9456C54.3709 35.8466 54.2855 35.7098 54.2499 35.5568C53.5133 32.1835 51.6199 31.0901 46.6099 31.0901C40.9799 31.0901 40.3066 33.0468 40.3066 34.5135C40.3066 36.2835 41.0966 36.8335 48.6866 37.8135C56.2066 38.7901 59.7533 40.1968 59.7533 45.4601C59.6866 50.8435 55.2899 53.8968 47.5199 53.8968Z" fill="#373F41"/>
</svg>
