<svg width="60" height="68" viewBox="0 0 60 68" fill="none" xmlns="http://www.w3.org/2000/svg">
<path d="M58.8667 17.3335C58.4355 16.5483 57.8027 15.8924 57.0334 15.4335L32.5667 1.30013C31.7739 0.888164 30.8935 0.673096 30 0.673096C29.1065 0.673096 28.2262 0.888164 27.4334 1.30013L2.96669 15.4335C2.21705 15.915 1.59311 16.5684 1.14671 17.3394C0.700309 18.1105 0.444325 18.9769 0.400024 19.8668V48.1335C0.424193 49.0267 0.676654 49.8988 1.13336 50.6668C1.56451 51.452 2.1974 52.1079 2.96669 52.5668L27.4334 66.7001C28.2262 67.1121 29.1065 67.3272 30 67.3272C30.8935 67.3272 31.7739 67.1121 32.5667 66.7001L57.0334 52.5668C57.8027 52.1079 58.4355 51.452 58.8667 50.6668C59.3234 49.8988 59.5758 49.0267 59.6 48.1335V19.8668C59.5758 18.9736 59.3234 18.1015 58.8667 17.3335ZM30 53.7335C26.5464 53.718 23.1574 52.7965 20.1715 51.0609C17.1856 49.3253 14.7076 46.8365 12.9849 43.8431C11.2623 40.8498 10.3554 37.4568 10.3549 34.0031C10.3544 30.5495 11.2603 27.1562 12.9821 24.1624C14.7039 21.1686 17.1813 18.679 20.1666 16.9426C23.152 15.2062 26.5408 14.2836 29.9944 14.2672C33.448 14.2508 36.8454 15.141 39.8472 16.849C42.8489 18.557 45.3498 21.0228 47.1 24.0001L43.3334 26.3668L42.1334 27.0335L38.8 29.0668C37.7358 27.0933 36.0391 25.5347 33.9826 24.6413C31.926 23.7479 29.6289 23.5717 27.4601 24.1408C25.2913 24.7099 23.3767 25.9914 22.0238 27.7794C20.6709 29.5675 19.9581 31.7583 20 34.0001C19.9906 35.7348 20.4513 37.4397 21.3334 38.9335C22.2247 40.4029 23.4797 41.6179 24.9774 42.461C26.475 43.3042 28.1647 43.7472 29.8834 43.7472C31.602 43.7472 33.2917 43.3042 34.7893 42.461C36.287 41.6179 37.542 40.4029 38.4334 38.9335L47.1 44.0001C45.3453 46.9722 42.8442 49.4339 39.8446 51.1412C36.8451 52.8486 33.4514 53.7422 30 53.7335ZM49.7334 35.1001H47.5334V37.3335H45.3667V35.1335H43.3334V32.9335H45.5334V30.6668H47.7V32.8668H49.9L49.7334 35.1001ZM57.9667 35.1001H55.7667V37.3335H53.5667V35.1335H51.4V32.9335H53.5667V30.6668H55.7667V32.8668H57.9667V35.1001Z" fill="#373F41"/>
</svg>
