<svg width="80" height="80" viewBox="0 0 80 80" fill="none" xmlns="http://www.w3.org/2000/svg">
<path d="M5.95177 34.0261L5.87919 33.8084L6.6776 32.8285L7.11309 32.5382H21.049L21.1578 32.8285L20.5046 33.7721L20.1054 33.9898L5.95177 34.0261ZM0.108874 37.5827L0 37.4012L0.798409 36.3488L1.2339 36.131H19.0166L19.1981 36.4576L18.9078 37.3286L18.5449 37.5827H0.108874ZM9.54461 41.1755L9.39945 40.9577L9.98011 39.9416L10.343 39.7238H18.1456L18.3997 39.9779L18.3271 40.8852L18.0368 41.1755H9.54461ZM50.0094 33.3366L43.5496 35.0423C42.86 35.1874 42.8237 35.2237 42.3157 34.6431C41.735 33.9898 41.3358 33.5906 40.5011 33.1914C38.1059 31.9575 35.6743 32.3204 33.4606 33.7358C30.8476 35.4778 29.4322 37.9819 29.4685 41.1755C29.5048 44.2965 31.646 46.8732 34.7308 47.345C37.38 47.6716 39.5938 46.7281 41.3721 44.732L42.4245 43.3167H34.9122C34.1138 43.3167 33.9324 42.8086 34.1864 42.1554L36.1824 37.873C36.2913 37.6552 36.5816 37.256 37.1623 37.256H49.6465C50.1909 35.4415 51.1344 33.7721 52.3683 32.139C55.1991 28.401 58.6467 26.4412 63.2557 25.5702C67.1389 24.917 70.9858 25.3162 74.3972 27.6388C77.4456 29.7437 79.3691 32.5745 79.8409 36.3125C80.5304 41.5747 78.9699 45.8571 75.3407 49.5588C72.7641 52.1718 69.6067 53.8049 66.0139 54.6033L62.8928 54.8936C59.3363 54.821 56.1063 53.8049 53.3845 51.4459C51.4974 49.8128 50.1909 47.8531 49.5376 45.5305C48.9933 46.4014 48.5578 47.2361 47.9408 48.0708C45.1464 51.7726 41.4809 54.0589 36.8357 54.6033C33.0251 55.1839 29.4685 54.4218 26.3475 52.0992C23.4805 49.9217 21.7748 47.0184 21.4119 43.4256C20.9038 39.1795 22.1377 35.3689 24.7144 32.0301C27.4725 28.401 31.1379 26.1146 35.6381 25.2799C39.2672 24.6267 42.7874 25.0622 45.9448 27.1671C48.0134 28.5461 49.465 30.4333 50.4449 32.6833C50.5901 33.01 50.4449 33.2277 50.0094 33.3366ZM72.1834 39.1432L72.0745 37.8367C71.385 33.9898 67.8284 31.8123 64.1267 32.647C60.4613 33.4454 58.0661 35.7318 57.304 39.3972C56.6144 42.4457 58.0661 45.5305 60.8605 46.7644C63.0017 47.7079 65.1792 47.5628 67.2478 46.5466C70.2962 44.9861 72.0019 42.482 72.1834 39.1432Z" fill="#373F41"/>
</svg>
