<svg width="80" height="80" viewBox="0 0 80 80" fill="none" xmlns="http://www.w3.org/2000/svg">
<path d="M39.7122 0C19.3994 0 20.6661 8.85308 20.6661 8.85308L20.6894 18.0261H40.0688V20.7794H12.9996C12.9996 20.7794 0 19.2961 0 39.8955C0 60.4949 11.343 59.7616 11.343 59.7616H18.1095V50.2052C18.1095 50.2052 17.7462 38.8056 29.2758 38.8056H48.4953C48.4953 38.8056 59.295 38.9789 59.295 28.3125V10.673C59.295 10.673 60.9316 0 39.7089 0H39.7122ZM29.0258 6.16649C30.9524 6.16649 32.5124 7.73311 32.5124 9.67306C32.5124 11.6097 30.9524 13.1763 29.0258 13.1763C27.0959 13.1763 25.5393 11.6097 25.5393 9.67306C25.5393 7.73311 27.0959 6.16649 29.0258 6.16649Z" fill="#373F41"/>
<path d="M40.2879 79.997C60.594 79.997 59.3274 71.144 59.3274 71.144L59.3041 61.9709H39.9246V59.2176H67.0005C67.0005 59.2176 80.0001 60.7009 80.0001 40.1015C80.0001 19.5021 68.6538 20.2354 68.6538 20.2354H61.8873V29.7918C61.8873 29.7918 62.2506 41.1915 50.721 41.1915H31.5049C31.5049 41.1915 20.7052 41.0182 20.7052 51.6845V69.324C20.7052 69.324 19.0652 79.997 40.2879 79.997ZM50.9743 73.8305C49.0443 73.8305 47.4877 72.2639 47.4877 70.324C47.4877 68.3874 49.0443 66.8207 50.9743 66.8207C52.9009 66.8207 54.4609 68.3874 54.4609 70.324C54.4609 72.2639 52.9009 73.8305 50.9743 73.8305Z" fill="#373F41"/>
</svg>
