<svg width="155" height="15" viewBox="0 0 155 15" fill="none" xmlns="http://www.w3.org/2000/svg">
<path d="M5.655 0C7.071 0 8.28 0.361001 9.284 1.084C10.283 1.809 10.916 2.789 11.182 4.025L8.344 4.611C8.246 3.955 7.941 3.431 7.427 3.035C6.911 2.639 6.299 2.439 5.591 2.439C4.909 2.439 4.36 2.607 3.943 2.941C3.526 3.275 3.317 3.685 3.317 4.171C3.317 4.935 3.783 5.405 4.715 5.591L7.719 6.193C8.873 6.445 9.773 6.906 10.419 7.58C11.066 8.256 11.389 9.129 11.389 10.201C11.389 11.549 10.883 12.619 9.866 13.414C8.852 14.207 7.509 14.602 5.842 14.602C4.299 14.602 2.979 14.245 1.89 13.526C0.795 12.811 0.168 11.786 0 10.45L2.981 9.845C3.344 11.361 4.389 12.118 6.113 12.118C6.904 12.118 7.516 11.952 7.949 11.62C8.381 11.286 8.595 10.862 8.595 10.347C8.595 9.927 8.473 9.603 8.228 9.367C7.987 9.131 7.566 8.949 6.967 8.824L4.004 8.261C1.558 7.745 0.333 6.409 0.333 4.257C0.333 2.991 0.813 1.966 1.772 1.179C2.734 0.395 4.027 0 5.655 0Z" fill="black"/>
<path d="M15.0751 2.125C16.5001 0.707 18.2421 0 20.3011 0C22.3601 0 24.1021 0.707 25.5261 2.125C26.9521 3.545 27.6641 5.277 27.6641 7.322C27.6641 9.353 26.9521 11.072 25.5261 12.484C24.1021 13.896 22.3601 14.601 20.3011 14.601C18.2421 14.601 16.5001 13.896 15.0751 12.484C13.6491 11.072 12.9351 9.353 12.9351 7.322C12.9351 5.277 13.6491 3.545 15.0751 2.125ZM17.0991 10.615C17.9661 11.494 19.0351 11.931 20.3001 11.931C21.5651 11.931 22.6321 11.493 23.5021 10.615C24.3701 9.74 24.8071 8.64 24.8071 7.322C24.8071 6.002 24.3701 4.894 23.5021 4.006C22.6321 3.113 21.5641 2.668 20.3001 2.668C19.0341 2.668 17.9661 3.113 17.0991 4.006C16.2311 4.895 15.7941 6.002 15.7941 7.322C15.7951 8.641 16.2311 9.74 17.0991 10.615Z" fill="black"/>
<path d="M29.5781 0.308105V14.2931H32.5781V8.8571H38.5781V6.29211H32.5781V2.8701H43.5781V14.2931H46.5781V2.8701H51.5961V0.308105H29.5781Z" fill="black"/>
<path d="M72.7081 0.292969L68.6401 14.293H65.5971L62.8831 4.85497L60.1521 14.293H57.1261L53.0581 0.292969H56.0221L58.6891 9.95497L61.5091 0.292969H64.2401L67.0541 9.95497L69.7261 0.292969H72.7081Z" fill="black"/>
<path d="M86.6239 14.293H83.558L82.35 11.307H76.173L74.9459 14.293H71.877L77.9259 0.292969H80.5779L86.6239 14.293ZM81.2859 8.73397L79.2609 3.74097L77.2179 8.73397H81.2859V8.73397Z" fill="black"/>
<path d="M100.146 14.293H96.6821L92.2861 9.29297H90.5781V14.293H87.5781V0.292969H94.4511C95.9521 0.292969 97.1621 0.712969 98.0791 1.52697C98.9971 2.33897 99.4591 3.40797 99.4591 4.72797C99.4591 5.89697 99.0961 6.86897 98.3731 7.64897C97.6491 8.42697 96.6751 8.90697 95.4511 9.08697L100.146 14.293ZM90.5781 6.58597H94.4511C95.1021 6.58597 95.6301 6.41497 96.0361 6.07297C96.4381 5.73297 96.6411 5.28397 96.6411 4.72797C96.6411 4.17097 96.4381 3.72397 96.0361 3.38297C95.6301 3.03997 95.1021 2.86897 94.4511 2.86897H90.5781V6.58597Z" fill="black"/>
<path d="M125.578 11.7181V14.2931H116.578V0.308105H119.578V11.7181H125.578Z" fill="black"/>
<path d="M138.578 0.308105V8.0261C138.578 9.9851 138.034 11.5701 136.952 12.7801C135.867 13.9911 134.432 14.5951 132.649 14.5951C130.823 14.5951 129.356 13.9911 128.246 12.7801C127.135 11.5701 126.578 9.9851 126.578 8.0261V0.308105H129.378V8.0261C129.378 9.1951 129.677 10.1301 130.273 10.8301C130.87 11.5341 131.661 11.8851 132.65 11.8851C133.583 11.8851 134.338 11.5341 134.913 10.8301C135.492 10.1301 135.778 9.1951 135.778 8.0261V0.308105H138.578V0.308105Z" fill="black"/>
<path d="M149.521 7.29296L154.067 14.293H150.606L147.373 9.18196L144.141 14.293H140.678L145.204 7.27896L140.678 0.313965H144.119L147.373 5.37696L150.627 0.313965H154.067L149.521 7.29296Z" fill="black"/>
<path d="M113.578 0.292969H102.578V2.85997H113.578V0.292969Z" fill="#9E99E3"/>
<path d="M113.578 11.7261H102.578V14.2931H113.578V11.7261Z" fill="black"/>
<path d="M113.578 6.00708H102.578V8.57908H113.578V6.00708Z" fill="#5F5FA0"/>
</svg>
