<svg width="50" height="50" viewBox="0 0 50 50" fill="none" xmlns="http://www.w3.org/2000/svg">
<path fill-rule="evenodd" clip-rule="evenodd" d="M28.3037 25L19.3602 16.0565C18.5466 15.2429 18.5466 13.9238 19.3602 13.1102C20.1738 12.2966 21.4929 12.2966 22.3065 13.1102L32.7231 23.5269C33.5367 24.3405 33.5367 25.6595 32.7231 26.4731L22.3065 36.8898C21.4929 37.7034 20.1738 37.7034 19.3602 36.8898C18.5466 36.0762 18.5466 34.7571 19.3602 33.9435L28.3037 25Z" fill="#9E99E3"/>
<mask id="mask0_571:20757" style="mask-type:alpha" maskUnits="userSpaceOnUse" x="18" y="12" width="16" height="26">
<path fill-rule="evenodd" clip-rule="evenodd" d="M28.3037 25L19.3602 16.0565C18.5466 15.2429 18.5466 13.9238 19.3602 13.1102C20.1738 12.2966 21.4929 12.2966 22.3065 13.1102L32.7231 23.5269C33.5367 24.3405 33.5367 25.6595 32.7231 26.4731L22.3065 36.8898C21.4929 37.7034 20.1738 37.7034 19.3602 36.8898C18.5466 36.0762 18.5466 34.7571 19.3602 33.9435L28.3037 25Z" fill="white"/>
</mask>
<g mask="url(#mask0_571:20757)">
</g>
</svg>
