<svg width="34" height="34" viewBox="0 0 34 34" fill="none" xmlns="http://www.w3.org/2000/svg">
<g clip-path="url(#clip0_372:23422)">
<path fill-rule="evenodd" clip-rule="evenodd" d="M14.2049 31.152C12.299 30.7777 10.528 30.0275 8.97149 28.9826L6.1805 30.2221L3.77792 27.8196L4.58914 25.993H4.75635C6.81441 25.993 8.567 25.1968 9.97668 23.9038C11.7635 25.7213 14.2499 26.849 17 26.849C22.4395 26.849 26.849 22.4395 26.849 17C26.849 11.5606 22.4395 7.15109 17 7.15109C14.2499 7.15109 11.7635 8.27873 9.97668 10.0963C8.567 8.80328 6.81441 8.00707 4.75635 8.00707H4.58914L3.77798 6.1805L6.1805 3.77792L8.97055 5.01706C10.5272 3.97169 12.2989 3.2217 14.2052 2.8473L15.3011 0H18.6988L19.7951 2.84797C21.701 3.2223 23.472 3.97249 25.0285 5.01739L27.8194 3.77785L30.2221 6.18043L28.9829 8.97049C30.0284 10.5271 30.7782 12.2989 31.1527 14.2052L34 15.3011V18.6989L31.1522 19.7951C30.7779 21.7012 30.0278 23.4725 28.9827 25.0288L30.2221 27.8195L27.8196 30.2221L25.0287 28.9825C23.4722 30.0274 21.7012 30.7776 19.7952 31.152L18.6989 34H15.3012L14.2049 31.152ZM13.9115 13.4254C13.9223 13.4191 13.9329 13.4126 13.9433 13.4058C14.3912 13.1162 14.8796 12.9673 15.4131 12.9673H17.409C17.8394 12.9673 18.1884 12.6182 18.1884 12.1879C18.1884 11.7576 17.8393 11.4085 17.409 11.4085H15.4131C14.575 11.4085 13.8004 11.6456 13.0968 12.1006C13.0846 12.1085 13.0727 12.1167 13.0609 12.1254C12.3278 12.6094 11.7412 13.2874 11.2701 14.0227L10.2873 15.557L9.30438 14.0227C8.3549 12.5406 6.99922 11.4085 5.16149 11.4085H2.6609L3.81291 10.2564C4.11719 9.95217 4.11725 9.45851 3.81291 9.15423C3.50857 8.84996 3.01498 8.84996 2.7107 9.15423L0.228172 11.6368C-0.0760994 11.941 -0.0760994 12.4347 0.228172 12.739L2.7107 15.2215C3.01498 15.5258 3.50864 15.5258 3.81291 15.2215C4.11725 14.9172 4.11725 14.4236 3.81291 14.1193L2.6609 12.9673H5.16149C6.44586 12.9673 7.33882 13.8405 7.99398 14.8632L9.36288 17L7.99405 19.1368C7.34068 20.1567 6.44552 21.0326 5.16156 21.0326H2.66103L3.81305 19.8806C4.11732 19.5764 4.11732 19.0827 3.81305 18.7784C3.50871 18.4742 3.01511 18.4742 2.71083 18.7784L0.228302 21.261C-0.0759697 21.5652 -0.0759697 22.0589 0.228302 22.3632L2.71083 24.8457C3.01511 25.15 3.50877 25.15 3.81305 24.8457C4.11739 24.5414 4.11732 24.0478 3.81305 23.7435L2.66103 22.5915H5.16162C7.01369 22.5915 8.3563 21.4574 9.30451 19.9773L10.2874 18.443L11.2703 19.9773C11.7495 20.7253 12.3482 21.414 13.099 21.8994C13.802 22.354 14.5759 22.5915 15.4132 22.5915H17.4091C17.8395 22.5915 18.1885 22.2424 18.1885 21.8121C18.1885 21.3817 17.8394 21.0327 17.4091 21.0327H15.4132C14.8791 21.0327 14.3899 20.8842 13.9414 20.5942C13.384 20.2339 12.9356 19.6907 12.5807 19.1368L11.2118 17L12.5807 14.8632C12.9294 14.3188 13.3681 13.7856 13.9115 13.4254Z" fill="#373F41"/>
</g>
<defs>
<clipPath id="clip0_372:23422">
<rect width="34" height="34" fill="white" transform="translate(34 34) rotate(-180)"/>
</clipPath>
</defs>
</svg>
