<svg width="78" height="78" viewBox="0 0 78 78" fill="none" xmlns="http://www.w3.org/2000/svg">
<path d="M41.0872 26.1296C41.6485 26.5317 42.1083 27.0592 42.43 27.6701C42.7518 28.281 42.9266 28.9586 42.9407 29.6489C42.9407 30.8689 42.2837 31.4965 41.4156 31.2033V57.0115L50.8005 37.2682C50.9454 36.8906 50.9454 36.4727 50.8005 36.0951C48.2974 30.3609 46.7024 24.2719 46.0729 18.0469C46.0443 17.846 45.9729 17.6536 45.8636 17.4826C45.7544 17.3116 45.6097 17.166 45.4394 17.0557L36.6411 11.982C36.5812 11.9367 36.5098 11.9092 36.435 11.9027C36.3601 11.8962 36.285 11.911 36.2182 11.9453C36.1514 11.9796 36.0957 12.0321 36.0574 12.0967C36.0191 12.1613 35.9998 12.2354 36.0018 12.3105C35.4152 17.8065 33.7318 21.8888 31.4501 24.628C31.3286 24.7871 31.2439 24.9712 31.2023 25.167C31.1607 25.3628 31.1632 25.5654 31.2097 25.7601L40.7118 56.6596V30.8513C40.2448 30.4307 39.8683 29.9195 39.6051 29.3488C39.3419 28.778 39.1976 28.1597 39.1809 27.5315C39.2278 26.1707 40.0548 25.5431 41.0872 26.1296Z" fill="#24307A"/>
<path d="M26.9513 28.2528L36.4534 59.1523L37.0986 58.7769V59.5277L41.4098 57.0466L50.7946 37.3032C50.9396 36.9257 50.9396 36.5077 50.7946 36.1301C48.2915 30.3959 46.6966 24.3069 46.067 18.082C46.0384 17.8811 45.9671 17.6886 45.8578 17.5176C45.7485 17.3466 45.6038 17.201 45.4335 17.0907L36.6353 12.017C36.4539 11.9234 36.2528 11.8746 36.0487 11.8746C35.8446 11.8746 35.6435 11.9234 35.4622 12.017L32.3828 13.8119C32.2134 13.9238 32.0691 14.0698 31.959 14.2404C31.849 14.411 31.7755 14.6027 31.7434 14.8032C31.1569 20.2991 29.4735 24.3815 27.1918 27.1207C27.0706 27.28 26.9862 27.464 26.9446 27.6598C26.903 27.8555 26.9053 28.058 26.9513 28.2528Z" fill="#24307A"/>
<path opacity="0.4" d="M26.9513 28.2528L36.4534 59.1523L37.0986 58.7769V59.5277L41.4098 57.0466L50.7946 37.3032C50.9396 36.9257 50.9396 36.5077 50.7946 36.1301C48.2915 30.3959 46.6966 24.3069 46.067 18.082C46.0384 17.8811 45.9671 17.6886 45.8578 17.5176C45.7485 17.3466 45.6038 17.201 45.4335 17.0907L36.6353 12.017C36.4539 11.9234 36.2528 11.8746 36.0487 11.8746C35.8446 11.8746 35.6435 11.9234 35.4622 12.017L32.3828 13.8119C32.2134 13.9238 32.0691 14.0698 31.959 14.2404C31.849 14.411 31.7755 14.6027 31.7434 14.8032C31.1569 20.2991 29.4735 24.3815 27.1918 27.1207C27.0706 27.28 26.9862 27.464 26.9446 27.6598C26.903 27.8555 26.9053 28.058 26.9513 28.2528Z" fill="white"/>
<path opacity="0.15" d="M34.9219 30.0242C34.9366 30.652 35.0801 31.27 35.3435 31.8401C35.6068 32.4101 35.9844 32.92 36.4528 33.3382V59.1465L37.098 58.7711V33.7136C37.9661 34.0128 38.6289 33.3851 38.6289 32.171C38.6144 31.4807 38.4394 30.8034 38.1177 30.1925C37.7959 29.5816 37.3364 29.0541 36.7754 28.6517C35.7489 28.0299 34.9219 28.6634 34.9219 30.0242Z" fill="black"/>
<path d="M26.9511 28.2528L36.4532 59.1523V33.3441C35.9848 32.9259 35.6072 32.416 35.3439 31.8459C35.0805 31.2759 34.937 30.6578 34.9223 30.03C34.9223 28.6692 35.7493 28.0358 36.7758 28.6282C37.3368 29.0306 37.7963 29.5581 38.1181 30.169C38.4398 30.7799 38.6148 31.4572 38.6293 32.1475C38.6293 33.3616 37.9665 33.9893 37.0984 33.6901V59.4984L46.4832 39.7609C46.6358 39.3746 46.6358 38.9448 46.4832 38.5585C43.9794 32.8245 42.3844 26.7354 41.7556 20.5103C41.7259 20.3097 41.6541 20.1177 41.545 19.9469C41.4358 19.776 41.2917 19.6302 41.1221 19.519L32.3239 14.4454C32.264 14.4001 32.1925 14.3726 32.1177 14.3661C32.0429 14.3596 31.9678 14.3744 31.901 14.4087C31.8342 14.443 31.7784 14.4955 31.7402 14.5601C31.7019 14.6247 31.6826 14.6988 31.6845 14.7738C31.098 20.2698 29.4146 24.3522 27.1329 27.0914C27.0173 27.2589 26.941 27.4503 26.9095 27.6514C26.878 27.8524 26.8922 28.058 26.9511 28.2528Z" fill="#24307A"/>
<g opacity="0.8">
<path opacity="0.8" d="M26.9511 28.2528L36.4532 59.1523V33.3441C35.9848 32.9259 35.6072 32.416 35.3439 31.8459C35.0805 31.2759 34.937 30.6578 34.9223 30.03C34.9223 28.6692 35.7493 28.0358 36.7758 28.6282C37.3368 29.0306 37.7963 29.5581 38.1181 30.169C38.4398 30.7799 38.6148 31.4572 38.6293 32.1475C38.6293 33.3616 37.9665 33.9893 37.0984 33.6901V59.4984L46.4832 39.7609C46.6358 39.3746 46.6358 38.9448 46.4832 38.5585C43.9794 32.8245 42.3844 26.7354 41.7556 20.5103C41.7259 20.3097 41.6541 20.1177 41.545 19.9469C41.4358 19.776 41.2917 19.6302 41.1221 19.519L32.3239 14.4454C32.264 14.4001 32.1925 14.3726 32.1177 14.3661C32.0429 14.3596 31.9678 14.3744 31.901 14.4087C31.8342 14.443 31.7784 14.4955 31.7402 14.5601C31.7019 14.6247 31.6826 14.6988 31.6845 14.7738C31.098 20.2698 29.4146 24.3522 27.1329 27.0914C27.0173 27.2589 26.941 27.4503 26.9095 27.6514C26.878 27.8524 26.8922 28.058 26.9511 28.2528Z" fill="white"/>
</g>
<path opacity="0.15" d="M31.7606 14.7094C31.7708 14.6425 31.7986 14.5796 31.8412 14.527C31.8838 14.4745 31.9395 14.4342 32.0028 14.4103C32.0661 14.3864 32.1346 14.3798 32.2013 14.3911C32.268 14.4025 32.3305 14.4313 32.3823 14.4748L41.1806 19.5484C41.3721 19.6672 41.5281 19.8354 41.6322 20.0353L45.9434 17.5424C45.834 17.3479 45.679 17.1829 45.4917 17.0615L36.6935 11.9878C36.5121 11.8942 36.311 11.8453 36.1069 11.8453C35.9028 11.8453 35.7017 11.8942 35.5204 11.9878L32.3823 13.812C32.0651 14.0177 31.8417 14.3401 31.7606 14.7094Z" fill="black"/>
<path d="M48.0428 9.18408L34.124 1.14247C33.9426 1.04885 33.7415 1 33.5374 1C33.3334 1 33.1322 1.04885 32.9509 1.14247L29.7894 2.96664C29.6191 3.07398 29.4771 3.22051 29.375 3.39398C29.273 3.56745 29.2139 3.76282 29.2028 3.96378V10.0932C29.2139 10.2942 29.273 10.4896 29.375 10.663C29.4771 10.8365 29.6191 10.983 29.7894 11.0904L43.7376 19.1261C43.9149 19.2158 44.1108 19.2625 44.3094 19.2625C44.5081 19.2625 44.704 19.2158 44.8813 19.1261L48.0428 17.3313C48.212 17.2241 48.3533 17.0784 48.4553 16.9061C48.5572 16.7338 48.6169 16.5398 48.6294 16.34V10.1753C48.6169 9.97553 48.5572 9.78151 48.4553 9.60921C48.3533 9.4369 48.212 9.29121 48.0428 9.18408Z" fill="#37474F"/>
<path d="M29.2446 3.86993C29.2856 3.57079 29.5261 3.46521 29.8311 3.62944L43.7324 11.6652C43.9044 11.772 44.0459 11.9215 44.143 12.0992L48.4482 9.61226C48.352 9.43743 48.2127 9.29005 48.0435 9.18408L34.1247 1.14247C33.9433 1.04885 33.7422 1 33.5381 1C33.334 1 33.1329 1.04885 32.9516 1.14247L29.7901 2.96664C29.6416 3.07132 29.5165 3.20564 29.4226 3.36111C29.3288 3.51659 29.2681 3.68984 29.2446 3.86993Z" fill="#455A64"/>
<path d="M43.8255 19.173H43.8725C43.8725 19.173 43.8725 19.173 43.9135 19.173C43.931 19.1755 43.9488 19.1755 43.9663 19.173H44.0367H44.0836H44.1833C44.4237 19.2031 44.6676 19.158 44.8813 19.0439L48.0428 17.3312C48.212 17.2241 48.3533 17.0784 48.4553 16.9061C48.5572 16.7338 48.6169 16.5398 48.6294 16.3399V10.1753C48.6255 9.96819 48.5668 9.76582 48.4593 9.58875L44.154 12.0757C44.2631 12.2521 44.3219 12.4549 44.3241 12.6623V18.7976C44.3241 19.0557 44.1892 19.2082 44.0015 19.2082H43.9194L43.8255 19.173Z" fill="#263238"/>
<path opacity="0.15" d="M37.0988 59.5278L41.41 57.0467L50.7948 37.3034C50.8687 37.1329 50.9086 36.9496 50.9121 36.7638L46.6068 39.2449C46.6056 39.4335 46.5636 39.6196 46.4837 39.7904L37.0988 59.5278Z" fill="black"/>
<path opacity="0.15" d="M36.4528 33.3382V59.1465L37.098 58.7711V33.7136C37.9661 34.0128 38.6289 33.3852 38.6289 32.171V32.083L36.4528 33.3382Z" fill="black"/>
<path d="M16.5515 25.9184C16.5515 25.2145 17.0442 24.933 17.6543 25.279C17.9732 25.4891 18.2386 25.7709 18.429 26.1019C18.6195 26.433 18.7298 26.804 18.7511 27.1853C18.7511 27.7719 18.4285 28.0417 17.9827 27.9478C18.5693 40.9165 27.6784 56.1961 38.7525 62.5895C44.2543 65.7628 49.4101 66.2848 53.2755 64.0559C56.9238 61.9502 59.0178 57.6038 59.2407 51.7853C58.7735 51.3547 58.4918 50.7596 58.4547 50.1253C58.4547 49.4215 58.9474 49.1399 59.5574 49.486C59.8764 49.696 60.1417 49.9779 60.3322 50.3089C60.5227 50.6399 60.633 51.011 60.6543 51.3923C60.6543 51.9788 60.2965 52.2838 59.8155 52.1372C59.5164 58.0027 57.3227 62.3901 53.5629 64.5603C51.8592 65.5369 49.9249 66.0392 47.9613 66.015C45.0286 66.015 41.8026 65.0413 38.4592 63.0822C27.1329 56.5422 17.8654 40.8344 17.3844 27.6076C17.1401 27.3957 16.9406 27.1371 16.7975 26.847C16.6545 26.5569 16.5709 26.2412 16.5515 25.9184Z" fill="#455A64"/>
<path d="M17.6249 49.533C18.1642 49.8864 18.5417 50.4389 18.6749 51.0698L58.5134 74.0567C58.6542 73.6226 59.0647 73.4701 59.5574 73.7693C59.8767 73.979 60.1423 74.2607 60.3328 74.5918C60.5233 74.9229 60.6334 75.2941 60.6543 75.6756C60.6543 76.3736 60.1616 76.661 59.5574 76.309C59.2809 76.1291 59.0437 75.8949 58.8602 75.6207C58.6767 75.3465 58.5508 75.0379 58.4899 74.7136L18.7042 51.7443C18.5751 52.2077 18.1587 52.3308 17.6543 52.0669C17.3349 51.861 17.0686 51.5826 16.877 51.2544C16.6854 50.9263 16.5739 50.5575 16.5515 50.1782C16.5515 49.4626 17.0384 49.1811 17.6249 49.533Z" fill="#455A64"/>
<path d="M58.0211 50.7647C58.0211 51.0745 58.113 51.3772 58.2851 51.6348C58.4572 51.8923 58.7017 52.0931 58.9879 52.2116C59.2741 52.3301 59.589 52.3611 59.8928 52.3007C60.1966 52.2403 60.4756 52.0911 60.6946 51.8721C60.9136 51.6531 61.0628 51.374 61.1232 51.0702C61.1837 50.7664 61.1526 50.4516 61.0341 50.1654C60.9156 49.8792 60.7148 49.6346 60.4573 49.4626C60.1998 49.2905 59.897 49.1986 59.5872 49.1986C59.3813 49.1978 59.1774 49.2378 58.987 49.3163C58.7966 49.3947 58.6237 49.51 58.4781 49.6556C58.3325 49.8012 58.2172 49.9741 58.1388 50.1645C58.0603 50.3548 58.0204 50.5588 58.0211 50.7647Z" fill="#455A64"/>
<path d="M59.6453 76.573C58.7837 76.573 58.0851 75.8744 58.0851 75.0127C58.0851 74.1511 58.7837 73.4525 59.6453 73.4525C60.507 73.4525 61.2056 74.1511 61.2056 75.0127C61.2056 75.8744 60.507 76.573 59.6453 76.573Z" fill="#455A64"/>
<path d="M16.0001 50.8409C16.0001 51.1506 16.092 51.4534 16.2641 51.711C16.4362 51.9685 16.6807 52.1692 16.9669 52.2878C17.2531 52.4063 17.568 52.4373 17.8718 52.3769C18.1756 52.3165 18.4546 52.1673 18.6736 51.9483C18.8926 51.7293 19.0418 51.4502 19.1022 51.1464C19.1627 50.8426 19.1316 50.5277 19.0131 50.2416C18.8946 49.9554 18.6938 49.7108 18.4363 49.5387C18.1788 49.3666 17.876 49.2748 17.5662 49.2748C17.3604 49.274 17.1564 49.314 16.966 49.3924C16.7756 49.4709 16.6027 49.5862 16.4571 49.7318C16.3115 49.8773 16.1962 50.0503 16.1178 50.2407C16.0393 50.431 15.9994 50.635 16.0001 50.8409Z" fill="#455A64"/>
<path d="M17.7069 28.0828C16.8452 28.0828 16.1466 27.3843 16.1466 26.5226C16.1466 25.6609 16.8452 24.9623 17.7069 24.9623C18.5686 24.9623 19.2671 25.6609 19.2671 26.5226C19.2671 27.3843 18.5686 28.0828 17.7069 28.0828Z" fill="#455A64"/>
</svg>
