<svg width="34" height="34" viewBox="0 0 34 34" fill="none" xmlns="http://www.w3.org/2000/svg">
<g clip-path="url(#clip0_372:22393)">
<path d="M10.2392 5.14246C10.4854 5.09574 10.7377 5.07125 10.9938 5.07125H23.0058C23.2619 5.07125 23.5141 5.09574 23.7603 5.14246C24.1406 4.12838 25.3029 1.02902 25.6808 0.0213546C25.0055 0.246445 20.8004 1.64818 20.123 1.87393C19.129 1.27754 17.9937 0.596327 16.9997 0C16.0057 0.596327 14.8705 1.27754 13.8765 1.87387C13.2012 1.64878 8.99607 0.247113 8.31873 0.0212879C8.69657 1.02902 9.85886 4.12838 10.2392 5.14246Z" fill="#373F41"/>
<path d="M10.9938 7.07312C9.88818 7.07312 8.99182 7.96948 8.99182 9.07511C8.99182 10.1807 9.88811 11.0771 10.9938 11.0771H23.0058C24.1114 11.0771 25.0078 10.1808 25.0078 9.07511C25.0078 7.96948 24.1114 7.07312 23.0058 7.07312C20.6097 7.07312 13.7363 7.07312 10.9938 7.07312Z" fill="#373F41"/>
<path d="M18.5014 24.4741H18.0009V27.4771H18.5014C18.9153 27.4771 19.2907 27.3088 19.5625 27.0368C20.1495 26.4499 20.1499 25.5017 19.5625 24.9144C19.2907 24.6426 18.9153 24.4741 18.5014 24.4741Z" fill="#373F41"/>
<path d="M13.9967 20.9706C13.9967 21.7985 14.6702 22.4721 15.4982 22.4721H15.9987V19.4691H15.4982C14.6704 19.4691 13.9967 20.1427 13.9967 20.9706Z" fill="#373F41"/>
<path d="M28.3794 16.6419C27.8131 16.0047 25.8141 13.7559 24.8249 12.6431C24.2684 12.9276 23.6489 13.0792 23.0057 13.0792H10.9938C10.3507 13.0792 9.73118 12.9276 9.17463 12.6431C8.86099 12.9959 6.50617 15.645 5.62016 16.6418C-0.300869 23.2358 4.40802 34.0053 13.4151 34H20.5844C29.5848 34.006 34.3045 23.243 28.3794 16.6419ZM18.5013 29.4791H18.0008V31.4811C17.3144 31.4811 16.6851 31.4811 15.9988 31.4811V29.4791C14.999 29.4791 13.9955 29.4791 12.9958 29.4791C12.9958 28.7789 12.9958 28.1773 12.9958 27.4771H15.9988V24.4741H15.4983C10.8494 24.2811 10.8528 17.6585 15.4983 17.4671H15.9988V15.4651H18.0008V17.4671H21.0037V19.4691C20.0661 19.4691 18.9414 19.4691 18.0008 19.4691V22.4721H18.5013C23.1502 22.6651 23.1467 29.2878 18.5013 29.4791Z" fill="#373F41"/>
</g>
<defs>
<clipPath id="clip0_372:22393">
<rect width="34" height="34" fill="white"/>
</clipPath>
</defs>
</svg>
