<svg width="34" height="34" viewBox="0 0 34 34" fill="none" xmlns="http://www.w3.org/2000/svg">
<g clip-path="url(#clip0_454:7073)">
<path d="M8.64857 9.1817L5.70295 9.40927C4.8833 9.47263 4.1533 9.9022 3.70002 10.5878L0.302898 15.7258C-0.040884 16.2457 -0.0955359 16.8965 0.156607 17.4665C0.408816 18.0365 0.927112 18.4337 1.54303 18.5292L4.24009 18.9469C4.87101 15.5987 6.38135 12.2587 8.64857 9.1817Z" fill="#373F41"/>
<path d="M15.053 29.7598L15.4708 32.4568C15.5662 33.0728 15.9635 33.5911 16.5334 33.8432C16.7706 33.9481 17.0216 33.9999 17.2713 33.9999C17.6221 33.9999 17.9705 33.8977 18.2742 33.6969L23.4123 30.2999C24.0979 29.8465 24.5275 29.1164 24.5907 28.2969L24.8183 25.3513C21.7412 27.6186 18.4013 29.1289 15.053 29.7598Z" fill="#373F41"/>
<path d="M14.0386 27.8904C14.1322 27.8904 14.2264 27.8827 14.3204 27.867C15.7231 27.6325 17.0751 27.2373 18.3649 26.7202L7.27976 15.6351C6.76259 16.9247 6.36748 18.2768 6.13294 19.6796C6.0405 20.2325 6.22597 20.7959 6.62235 21.1923L12.8076 27.3776C13.1367 27.7066 13.5809 27.8904 14.0386 27.8904Z" fill="#373F41"/>
<path d="M31.289 15.0743C34.0017 9.82998 34.1021 4.28802 33.9603 1.6889C33.9118 0.79833 33.2018 0.0883196 32.3112 0.039777C31.888 0.0166678 31.3864 0 30.8211 0C27.9148 0 23.3161 0.440204 18.9257 2.71108C15.4367 4.51579 10.8615 8.48957 8.16223 13.7119C8.19411 13.7368 8.22525 13.7632 8.2546 13.7925L20.2076 25.7456C20.237 25.7749 20.2634 25.806 20.2883 25.8379C25.5105 23.1385 29.4843 18.5634 31.289 15.0743ZM19.769 7.18776C21.7107 5.24599 24.8704 5.24579 26.8123 7.18776C27.753 8.12839 28.271 9.37915 28.271 10.7095C28.271 12.0398 27.753 13.2905 26.8123 14.2311C25.8415 15.2019 24.5659 15.6874 23.2907 15.6876C22.0151 15.6876 20.74 15.2022 19.769 14.2311C18.8283 13.2905 18.3102 12.0398 18.3102 10.7095C18.3102 9.37915 18.8283 8.12839 19.769 7.18776Z" fill="#373F41"/>
<path d="M21.1776 12.8224C22.3427 13.9875 24.2386 13.9876 25.4037 12.8224C25.9681 12.2579 26.279 11.5076 26.279 10.7094C26.279 9.91115 25.9681 9.16076 25.4037 8.59637C24.8212 8.01379 24.0559 7.72253 23.2907 7.72253C22.5255 7.72253 21.7602 8.01379 21.1777 8.59637C20.6133 9.16076 20.3024 9.91115 20.3024 10.7094C20.3024 11.5076 20.6132 12.258 21.1776 12.8224Z" fill="#373F41"/>
<path d="M1.01633 28.0191C1.27126 28.0191 1.5262 27.9219 1.72063 27.7273L4.97275 24.4752C5.36175 24.0862 5.36175 23.4555 4.97275 23.0665C4.5838 22.6775 3.95308 22.6775 3.56407 23.0665L0.311958 26.3187C-0.0770493 26.7077 -0.0770493 27.3383 0.311958 27.7273C0.506462 27.9218 0.761396 28.0191 1.01633 28.0191Z" fill="#373F41"/>
<path d="M7.95312 26.0469C7.56418 25.6579 6.93346 25.6579 6.54445 26.0469L0.291969 32.2994C-0.0970383 32.6884 -0.0970383 33.319 0.291969 33.708C0.486473 33.9025 0.741407 33.9998 0.99634 33.9998C1.25127 33.9998 1.50621 33.9025 1.70065 33.708L7.95306 27.4556C8.34213 27.0665 8.34213 26.4359 7.95312 26.0469Z" fill="#373F41"/>
<path d="M9.5247 29.0273L6.27265 32.2794C5.88364 32.6684 5.88364 33.2991 6.27265 33.6881C6.46716 33.8826 6.72209 33.9799 6.97696 33.9799C7.23182 33.9799 7.48682 33.8827 7.68126 33.6881L10.9334 30.436C11.3224 30.047 11.3224 29.4163 10.9334 29.0273C10.5444 28.6383 9.9137 28.6383 9.5247 29.0273Z" fill="#373F41"/>
</g>
<defs>
<clipPath id="clip0_454:7073">
<rect width="34" height="34" fill="white"/>
</clipPath>
</defs>
</svg>
