<svg width="78" height="78" viewBox="0 0 78 78" fill="none" xmlns="http://www.w3.org/2000/svg">
<path d="M40.3551 2.20645C43.6047 0.324852 48.0713 0.579472 53.0083 3.42776C62.9342 9.16748 71 23.2233 71 34.8279C71 40.6669 68.9544 44.7537 65.6616 46.6656C64.8978 47.0971 61.9114 48.8233 61.9114 48.8233C62.0513 50.1367 62.505 51.3971 63.2343 52.4982C63.9637 53.5993 64.9471 54.5088 66.1018 55.15C66.2917 55.2579 66.1752 55.4434 66.0069 55.5384L61.4453 58.1752C61.3838 58.2119 61.314 58.2326 61.2425 58.2356C56.7499 58.2356 51.5497 55.2147 50.0996 48.9399C49.5559 48.6809 49.0078 48.4004 48.4511 48.0767C38.5253 42.3413 30.4594 28.2812 30.4594 16.6809C30.4594 10.8376 32.5007 6.75507 35.7935 4.83032L40.3551 2.20645Z" fill="#37474F"/>
<path d="M48.4512 6.06019C58.3771 11.7956 66.4429 25.8557 66.4429 37.456C66.4429 45.332 62.7358 50.0446 57.2464 50.4761C57.4535 52.9792 58.1829 55.7929 61.562 57.7824C61.8295 57.9421 61.48 58.2399 61.2555 58.2399C56.763 58.2399 51.5628 55.219 50.1127 48.9441C49.569 48.6852 49.0209 48.4047 48.4642 48.081C38.5383 42.3456 30.4725 28.2854 30.4725 16.6851C30.4725 5.08487 38.5168 0.324781 48.4512 6.06019Z" fill="#455A64"/>
<path d="M61.5494 57.7824C61.7134 57.886 61.64 58.037 61.5019 58.1406L66.0074 55.5513C66.1757 55.4477 66.2922 55.2707 66.1024 55.1585C64.9452 54.516 63.9601 53.6039 63.2307 52.4995C62.5012 51.3951 62.0488 50.1311 61.9119 48.8146L61.4156 49.1081L60.9582 49.3757C59.815 50.0042 58.5484 50.3753 57.2468 50.4632C57.4496 52.9792 58.1833 55.7929 61.5494 57.7824Z" fill="#263238"/>
<path d="M50.3496 39.273C50.8286 38.9321 51.0703 38.3193 51.0703 37.4346C51.0599 36.5128 50.8164 35.6087 50.3626 34.8064C49.9504 34.0045 49.3227 33.3334 48.55 32.8687C47.8164 32.4458 47.2136 32.3954 46.7418 32.7176C46.2714 33.037 46.034 33.6412 46.034 34.5259C46.048 35.4638 46.2957 36.3834 46.7547 37.2015C47.1569 38.0117 47.7791 38.6922 48.55 39.1651C49.2664 39.5751 49.8663 39.6139 50.3496 39.273ZM50.9926 15.8135L46.1117 12.9954L46.9274 29.4464L50.177 31.3237L50.9926 15.8135Z" fill="#FAFAFA"/>
<path opacity="0.2" d="M46.0518 46.506C40.7522 42.622 36.182 36.4636 33.3855 29.8522C38.6851 33.7405 43.2553 39.8945 46.0518 46.506Z" fill="black"/>
<path d="M12.1657 68.9901C14.0042 69.0117 15.3722 67.7256 16.231 66.1073C10.7243 59.3361 6.99998 50.3166 6.99998 42.4277C6.99998 36.5801 9.04987 32.4716 12.3513 30.5728L16.9042 27.9489C20.1539 26.0716 24.6162 26.3306 29.5489 29.1746C39.4747 34.9143 47.5405 48.9701 47.5405 60.5747C47.5405 66.4137 45.4993 70.5006 42.2065 72.421C41.4383 72.8525 38.4131 74.6047 37.6665 75.0405C34.4125 76.9351 29.9373 76.6848 24.9916 73.8279C23.6672 73.057 22.4099 72.1764 21.2328 71.1954C17.8925 73.8408 13.8186 70.958 12.2046 69.577C11.9888 69.3958 11.9629 68.9901 12.1657 68.9901Z" fill="#0C1550"/>
<path d="M32.9542 76.0029C38.9701 76.0029 42.7031 71.1047 42.7031 63.2244C42.7031 51.7277 34.6934 37.7625 24.8539 32.0703C22.1005 30.4821 19.468 29.6751 17.0297 29.6751C11.0181 29.6751 7.28085 34.569 7.28085 42.4536C7.28085 49.9929 10.7937 58.9995 16.4471 65.9519L16.5637 66.0986L16.4773 66.2626C15.4632 68.1744 13.9916 69.2447 12.3258 69.2835C12.3375 69.3198 12.3583 69.3525 12.3862 69.3785C13.5341 70.3624 15.8127 72.0067 18.1734 72.0067C19.2246 72.0113 20.2449 71.6514 21.0605 70.9882L21.2374 70.8501L21.4144 70.9925C22.5806 71.957 23.8249 72.8231 25.1344 73.5818C27.8834 75.1743 30.5159 76.0029 32.9542 76.0029Z" fill="#24307A"/>
<path d="M24.6127 59.8989C23.2394 59.0883 22.4066 60.141 22.4066 61.5878C22.414 62.4311 22.618 63.2605 23.0016 64.0074C23.3852 64.7543 23.9375 65.3973 24.6127 65.8833C25.986 66.6939 26.8188 65.6412 26.8188 64.1944C26.8114 63.3511 26.6074 62.5217 26.2238 61.7748C25.8402 61.0279 25.2879 60.3849 24.6127 59.8989ZM24.894 38.8778C22.4838 37.4535 20.3439 38.0165 19.2022 40.6061C19.1072 40.823 19.0684 41.0612 19.0896 41.2979C19.1109 41.5345 19.1914 41.7615 19.3235 41.9572L21.4855 45.183C21.8937 45.791 22.3459 45.746 22.5114 45.4307C22.9967 44.4624 23.7082 43.9895 24.7561 44.6088C25.3068 44.9273 25.7614 45.3938 26.0706 45.9575C26.3798 46.5213 26.5318 47.1607 26.51 47.8064C26.51 51.0885 22.7154 50.5256 22.7154 54.8885V55.7893C22.7207 56.0181 22.7832 56.2417 22.8972 56.4388C23.0111 56.6359 23.1726 56.7999 23.3662 56.9152L25.7875 58.3395C25.8603 58.3831 25.9432 58.4063 26.0277 58.4068C26.1121 58.4072 26.1952 58.3849 26.2685 58.342C26.3418 58.2992 26.4028 58.2374 26.4452 58.1628C26.4876 58.0882 26.5099 58.0035 26.51 57.9173V57.0954C26.51 54.5282 30.3045 55.0462 30.3045 49.4953C30.3045 44.6763 27.602 40.471 24.894 38.8778Z" fill="#FAFAFA"/>
</svg>
