<svg width="200" height="28" viewBox="0 0 200 28" fill="none" xmlns="http://www.w3.org/2000/svg">
<path d="M0 22.7198C0.591482 26.3035 4.10558 27.7996 8.21116 27.7996C12.8038 27.7996 16.144 25.7816 16.144 21.9196C16.144 19.3449 14.6131 17.3617 11.3077 16.6659L7.20216 15.8308C6.08878 15.5873 5.88002 15.1002 5.88002 14.6131C5.88002 13.9868 6.36713 13.2561 7.86323 13.2561C9.56809 13.2561 10.6119 14.2303 10.7858 15.3089L15.8656 14.2999C15.1698 11.2729 12.2819 9.28974 7.93281 9.28974C3.5141 9.28974 0.417516 11.6209 0.417516 15.2046C0.417516 17.9532 2.26155 19.6929 5.4973 20.2843L9.04619 20.9802C10.3335 21.2237 10.7858 21.6761 10.7858 22.2675C10.7858 23.033 9.9856 23.6593 8.52429 23.6593C7.02819 23.6593 5.67127 23.1026 5.42771 21.6065L0 22.7198Z" fill="black"/>
<path d="M27.5115 9.35932C22.223 9.35932 17.839 13.0474 17.839 18.5447C17.839 24.0768 22.223 27.7648 27.5115 27.7648C32.6957 27.7648 37.0796 24.0768 37.0796 18.5447C37.0796 13.0474 32.6957 9.35932 27.5115 9.35932ZM27.5115 23.0678C25.25 23.0678 23.1972 21.2933 23.1972 18.5447C23.1972 15.8308 25.25 14.0216 27.5115 14.0216C29.6687 14.0216 31.7215 15.8308 31.7215 18.5447C31.7215 21.2933 29.6687 23.0678 27.5115 23.0678Z" fill="black"/>
<path d="M46.2546 9.81163V6.95861C46.2546 5.56689 47.194 4.76665 48.5162 4.76665C48.9337 4.76665 49.4904 4.87102 50.0123 5.04499L51.1952 0.730655C50.0819 0.243552 48.9337 0 47.7507 0C43.5408 0 40.7225 2.60948 40.7225 6.71506V9.81163H38.2174V14.2303H40.7225V27.2777H46.2546V14.2303H51.0561V9.81163H46.2546Z" fill="black"/>
<path d="M66.1874 22.1284C65.4568 22.5459 64.413 22.8242 63.6475 22.8242C62.1862 22.8242 61.3164 22.0936 61.3164 20.2843V14.2303H66.4658V9.81163H61.3164V3.96641H55.7495V9.81163H52.5833V14.2303H55.7495V20.841C55.7495 25.4337 58.359 27.7996 62.7081 27.7996C64.6913 27.7996 66.1178 27.2429 67.4748 26.5123L66.1874 22.1284Z" fill="black"/>
<path d="M94.9827 9.81163H89.5202L86.6672 19.2405L83.3619 9.81163H79.4302L76.1249 19.2058L73.2719 9.81163H67.8094L73.4111 27.3125H78.2473L81.4135 17.8488L84.5448 27.3125H89.3811L94.9827 9.81163Z" fill="black"/>
<path d="M104.493 9.28974C100.318 9.28974 97.2562 11.4121 96.4908 14.787L101.745 15.8656C102.023 14.3347 102.997 13.6737 104.667 13.6737C106.128 13.6737 107.137 14.6479 107.137 16.1092V16.4571H102.684C98.0217 16.4571 95.4122 18.6839 95.4122 22.0936C95.4122 25.5381 98.0217 27.7996 101.919 27.7996C104.25 27.7996 105.92 27.0342 107.137 25.9904V27.2777H112.496V16.2136C112.496 11.76 109.399 9.28974 104.493 9.28974ZM103.484 23.6245C102.023 23.6245 101.049 22.9286 101.049 21.8152C101.049 20.7366 101.919 20.006 103.31 20.006H107.137V20.3887C107.137 22.3371 105.398 23.6245 103.484 23.6245Z" fill="black"/>
<path d="M127.549 9.56808C124.696 9.56808 122.783 11.0642 121.53 13.1518V9.81163H115.963V27.2777H121.53V21.8152C121.53 17.2921 123.652 15.2741 127.549 15.2741H128.558L128.802 9.70726C128.384 9.60288 128.036 9.56808 127.549 9.56808Z" fill="black"/>
<path d="M148.167 18.5447C148.063 12.8386 144.097 9.28974 139.156 9.28974C134.076 9.28974 129.901 13.0474 129.901 18.5447C129.901 24.0768 134.076 27.7996 139.121 27.7996C143.122 27.7996 146.289 26.0252 147.785 22.3371L142.844 21.3281C141.905 23.033 140.409 23.3461 139.121 23.3461C137.242 23.3461 135.816 22.0588 135.364 19.9712H148.167V18.5447ZM139.156 13.8128C140.757 13.8128 142.148 14.6827 142.67 16.5615H135.468C135.99 14.787 137.59 13.8128 139.156 13.8128Z" fill="black"/>
<path d="M156.385 0.487102H150.818V21.7456C150.818 25.3641 150.818 27.7996 150.818 27.7996H156.385C156.385 27.7996 156.385 22.2327 156.385 21.3281V0.487102Z" fill="black"/>
<path d="M177.727 9.81163H172.16V17.9184C172.16 21.2933 170.733 22.7894 168.541 22.7894C166.767 22.7894 165.549 21.3977 165.549 19.3449V9.81163H160.017V20.5279C160.017 24.9118 162.731 27.7996 166.802 27.7996C168.994 27.7996 170.838 26.9994 172.16 25.6077V27.2777H177.727V9.81163Z" fill="black"/>
<path d="M194.224 18.823L200 9.77684H193.598L190.258 15.2046L186.883 9.77684H180.516L186.257 18.823L180.516 27.2777H186.883L190.258 22.2327L193.598 27.2777H200L194.224 18.823Z" fill="black"/>
</svg>
