<svg width="80" height="80" viewBox="0 0 80 80" fill="none" xmlns="http://www.w3.org/2000/svg">
<path d="M29.0095 61.8625C29.0095 61.8625 25.9495 63.645 31.182 64.2425C37.522 64.9725 40.7645 64.87 47.7445 63.54C47.7445 63.54 49.577 64.7 52.1445 65.7025C36.482 72.41 16.702 65.3 29.007 61.8625H29.0095ZM27.092 53.1125C27.092 53.1125 23.6545 55.65 28.8895 56.1825C35.677 56.885 41.012 56.9525 50.2695 55.17C50.2695 55.17 51.547 56.46 53.567 57.1725C34.6345 62.705 13.5395 57.6025 27.0945 53.1125H27.092ZM43.2245 38.2575C47.077 42.6975 42.207 46.695 42.207 46.695C42.207 46.695 51.9995 41.6275 47.507 35.3025C43.3045 29.39 40.0745 26.4625 57.5195 16.3425C57.5195 16.3425 30.137 23.18 43.222 38.26L43.2245 38.2575ZM63.9295 68.3475C63.9295 68.3475 66.197 70.2075 61.442 71.655C52.4045 74.3875 23.8245 75.2075 15.882 71.7575C13.032 70.52 18.382 68.79 20.062 68.4375C21.8195 68.0475 22.822 68.1275 22.822 68.1275C19.6445 65.8875 2.30204 72.515 14.0095 74.415C45.9495 79.5975 72.222 72.085 63.9295 68.3475ZM30.4795 44.0375C30.4795 44.0375 15.937 47.4875 25.322 48.7375C29.2945 49.27 37.1995 49.155 44.5695 48.53C50.582 48.02 56.627 46.94 56.627 46.94C56.627 46.94 54.5045 47.85 52.967 48.9075C38.1995 52.7875 9.67454 50.9775 17.8895 47.0075C24.8295 43.66 30.4795 44.0375 30.4795 44.0375ZM56.5595 58.62C71.5595 50.8075 64.6195 43.32 59.7895 44.3375C58.602 44.57 58.0695 44.795 58.0695 44.795C58.0695 44.795 58.4995 44.1025 59.347 43.805C68.9295 40.4325 76.2995 53.7375 56.2595 59.0125C56.2595 59 56.497 58.805 56.5595 58.6225V58.62ZM47.5095 0C47.5095 0 55.8195 8.3075 39.6195 21.0925C26.6395 31.3525 36.662 37.2 39.6195 43.88C32.042 37.0425 26.482 31.03 30.207 25.43C35.687 17.1875 50.857 13.2025 47.5095 0ZM31.9495 79.7525C46.352 80.6625 68.472 79.2325 69.0095 72.4225C69.0095 72.4225 67.992 75 57.092 77.055C44.802 79.3725 29.632 79.0975 20.6345 77.615C20.6345 77.615 22.4845 79.1375 31.947 79.7525H31.9495Z" fill="#373F41"/>
</svg>
