<svg width="80" height="80" viewBox="0 0 80 80" fill="none" xmlns="http://www.w3.org/2000/svg">
<g clip-path="url(#clip0_454:4927)">
<path d="M10.56 25.2227V54.3902H13.9725V33.2952C14.0008 31.9604 13.944 30.6252 13.8025 29.2977H13.9325C14.18 29.9352 14.4925 30.5477 14.8575 31.1202L29.8575 54.3752H34.0375V25.2227H30.64V45.7302C30.6 47.1627 30.68 48.5952 30.8475 50.0152H30.77C30.3964 49.3516 30.0012 48.7004 29.585 48.0627L14.9875 25.2252L10.56 25.2227ZM41.6025 25.2227V54.3902H57.11L57.1225 51.1877H45.09V41.0702H55.625V37.9977H45.09V28.3102H56.3925V25.2252L41.6025 25.2227ZM59.7275 25.2227V28.3077H68.1125V54.3876H71.525V28.3077H80.0025V25.2227H59.7275ZM2.17503 50.2227C1.88804 50.2302 1.60546 50.2951 1.34398 50.4136C1.08249 50.5321 0.847381 50.7018 0.652527 50.9127C0.233373 51.3404 -0.000186614 51.9163 0.00252698 52.5152C-0.00138048 52.9635 0.128603 53.4028 0.375836 53.7768C0.62307 54.1509 0.976304 54.4426 1.39032 54.6147C1.80434 54.7868 2.26029 54.8315 2.69982 54.7429C3.13935 54.6544 3.54246 54.4366 3.85753 54.1176C4.28753 53.7001 4.53503 53.1152 4.53503 52.5152C4.53503 51.9152 4.28753 51.3302 3.85753 50.9127C3.65196 50.694 3.40363 50.5199 3.12796 50.4012C2.85229 50.2825 2.55516 50.2217 2.25503 50.2227H2.17753H2.17503Z" fill="#373F41"/>
</g>
<defs>
<clipPath id="clip0_454:4927">
<rect width="80" height="80" fill="white"/>
</clipPath>
</defs>
</svg>
